<svg width="36" height="36" viewBox="0 0 36 36" fill="none" xmlns="http://www.w3.org/2000/svg">
<path d="M0 8C0 3.58172 3.58172 0 8 0H28C32.4183 0 36 3.58172 36 8V28C36 32.4183 32.4183 36 28 36H8C3.58172 36 0 32.4183 0 28V8Z" fill="#FEF0C7"/>
<path d="M18 14.0002V18.0002L20.6667 19.3335M24.6667 18.0002C24.6667 21.6821 21.6819 24.6668 18 24.6668C14.3181 24.6668 11.3334 21.6821 11.3334 18.0002C11.3334 14.3183 14.3181 11.3335 18 11.3335C21.6819 11.3335 24.6667 14.3183 24.6667 18.0002Z" stroke="#F79009" stroke-width="1.5" stroke-linecap="round" stroke-linejoin="round"/>
</svg>
