<svg width="36" height="36" viewBox="0 0 36 36" fill="none" xmlns="http://www.w3.org/2000/svg">
<path d="M0 8C0 3.58172 3.58172 0 8 0H28C32.4183 0 36 3.58172 36 8V28C36 32.4183 32.4183 36 28 36H8C3.58172 36 0 32.4183 0 28V8Z" fill="#008000" fill-opacity="0.1"/>
<path d="M16 17.3333L18 19.3333L24.6667 12.6667M24 18V22.6667C24 23.0203 23.8595 23.3594 23.6095 23.6095C23.3594 23.8595 23.0203 24 22.6667 24H13.3333C12.9797 24 12.6406 23.8595 12.3905 23.6095C12.1405 23.3594 12 23.0203 12 22.6667V13.3333C12 12.9797 12.1405 12.6406 12.3905 12.3905C12.6406 12.1405 12.9797 12 13.3333 12H20.6667" stroke="#008000" stroke-width="1.5" stroke-linecap="round" stroke-linejoin="round"/>
</svg>
