<svg width="36" height="36" viewBox="0 0 36 36" fill="none" xmlns="http://www.w3.org/2000/svg">
<path d="M0 8C0 3.58172 3.58172 0 8 0H28C32.4183 0 36 3.58172 36 8V28C36 32.4183 32.4183 36 28 36H8C3.58172 36 0 32.4183 0 28V8Z" fill="#FEF0C7"/>
<g clip-path="url(#clip0_22089_5633)">
<path d="M17.9999 20.6666V17.9999M17.9999 15.3333H18.0066M24.6666 17.9999C24.6666 21.6818 21.6818 24.6666 17.9999 24.6666C14.318 24.6666 11.3333 21.6818 11.3333 17.9999C11.3333 14.318 14.318 11.3333 17.9999 11.3333C21.6818 11.3333 24.6666 14.318 24.6666 17.9999Z" stroke="#F79009" stroke-width="1.5" stroke-linecap="round" stroke-linejoin="round"/>
</g>
<defs>
<clipPath id="clip0_22089_5633">
<rect width="16" height="16" fill="white" transform="translate(10 10)"/>
</clipPath>
</defs>
</svg>
