<svg width="36" height="36" viewBox="0 0 36 36" fill="none" xmlns="http://www.w3.org/2000/svg">
<path d="M0 8C0 3.58172 3.58172 0 8 0H28C32.4183 0 36 3.58172 36 8V28C36 32.4183 32.4183 36 28 36H8C3.58172 36 0 32.4183 0 28V8Z" fill="#FEF0C7"/>
<path d="M23.7236 13.2007C24.0942 13.2007 24.4553 13.2007 24.8165 13.2007C25.5098 13.202 25.9991 13.7448 25.9991 14.5173C26.0003 17.9036 26.0003 21.2912 25.9991 24.6775C25.9991 25.4513 25.5109 25.9994 24.8212 25.9994C20.5592 25.9994 16.2972 26.0007 12.0352 25.9994C10.877 25.9994 10.0009 25.022 10.0009 23.7275C9.99971 19.9067 9.99971 16.0872 10.0009 12.2663C10.0009 10.9823 10.877 10.001 12.0224 10.001C15.5282 9.99967 19.034 9.99967 22.5411 10.001C23.2203 10.001 23.712 10.5504 23.7143 11.3085C23.7155 11.9153 23.7155 12.5221 23.7155 13.1289C23.7155 13.1406 23.7178 13.1537 23.7236 13.2007ZM11.1415 14.2655C11.1415 14.3634 11.1415 14.4299 11.1415 14.4965C11.1415 17.5422 11.1415 20.5879 11.1415 23.6349C11.1415 24.333 11.4899 24.7206 12.1156 24.7206C16.2937 24.7206 20.4706 24.7206 24.6488 24.7206C24.7128 24.7206 24.7769 24.7206 24.848 24.7206C24.848 23.8593 24.848 23.0177 24.848 22.159C24.7734 22.159 24.7093 22.159 24.6453 22.159C23.9485 22.159 23.2529 22.1603 22.5562 22.1577C22.4315 22.1577 22.3069 22.1434 22.1845 22.1212C21.0136 21.9059 20.1957 20.7092 20.2912 19.3547C20.3809 18.0798 21.3899 17.045 22.548 17.0411C23.2506 17.0385 23.952 17.0411 24.6546 17.0411C24.7175 17.0411 24.7816 17.0411 24.8457 17.0411C24.8457 16.1759 24.8457 15.3329 24.8457 14.4795C24.7571 14.4795 24.6802 14.4795 24.6033 14.4795C20.4916 14.4795 16.3787 14.4782 12.267 14.4821C11.8907 14.4808 11.519 14.4678 11.1415 14.2655ZM22.5655 11.2785C22.4898 11.2785 22.4304 11.2785 22.3721 11.2785C18.9502 11.2785 15.5282 11.2785 12.1051 11.2785C12.0573 11.2785 12.0095 11.2772 11.9618 11.2811C11.4048 11.3255 11.0355 11.897 11.1765 12.4934C11.2778 12.924 11.6204 13.1994 12.0655 13.1994C15.5177 13.2007 18.97 13.1994 22.421 13.1994C22.4665 13.1994 22.5119 13.1928 22.5644 13.1889C22.5655 12.5521 22.5655 11.9284 22.5655 11.2785ZM24.8515 18.3212C24.0604 18.3212 23.2879 18.299 22.5166 18.3277C21.7977 18.3538 21.313 19.1003 21.4633 19.8884C21.5717 20.4574 22.0389 20.8737 22.5923 20.8789C23.3112 20.8854 24.0301 20.8802 24.7501 20.8802C24.7839 20.8802 24.8165 20.8697 24.8526 20.8645C24.8515 20.0163 24.8515 19.1799 24.8515 18.3212Z" fill="#F79009"/>
</svg>
