<svg width="36" height="36" viewBox="0 0 36 36" fill="none" xmlns="http://www.w3.org/2000/svg">
<path d="M0 8C0 3.58172 3.58172 0 8 0H28C32.4183 0 36 3.58172 36 8V28C36 32.4183 32.4183 36 28 36H8C3.58172 36 0 32.4183 0 28V8Z" fill="#F7BEBE"/>
<path d="M16.109 24.9927C14.6903 24.9902 13.2711 24.9927 11.8524 24.9915C11.1458 24.9908 10.8063 24.6143 10.8063 23.8301C10.8057 20.9817 10.8057 18.1333 10.8063 15.2849C10.8063 15.2019 10.8125 15.1189 10.8159 15.0296H25.1884V15.3262C25.1884 16.4887 25.1878 17.6513 25.189 18.8145C25.189 18.9232 25.1918 19.0331 25.203 19.1411C25.2682 19.738 25.814 20.1338 26.3339 19.964C26.7679 19.8223 26.9932 19.4558 26.9932 18.8745C26.9949 16.6192 26.9949 14.364 26.9921 12.1088C26.9921 11.9071 26.9871 11.701 26.9533 11.5031C26.6937 10.0002 25.6066 9.00687 24.2272 9.00312C23.9557 9.0025 23.6837 9.00312 23.4218 9.00312C23.4212 9.00187 23.4206 9.00062 23.4206 9H12.6016V9.00312C12.4178 9.00312 12.2441 9 12.0755 9C11.9665 9 11.8597 9.00125 11.7529 9.00562C11.5505 9.01436 11.3448 9.02747 11.1475 9.07617C9.83278 9.40022 9.00202 10.5784 9.00089 12.1231C8.99808 16.0404 8.99977 19.9578 9.00201 23.8751C9.00201 24.0849 9.00539 24.299 9.0408 24.5044C9.30104 26.0098 10.3696 26.9882 11.7692 26.9957C13.2092 27.0038 14.6493 26.9982 16.0894 26.9969C16.1804 26.9969 16.2726 26.9907 16.3625 26.9757C16.838 26.8964 17.1837 26.342 17.0854 25.8206C16.9853 25.2893 16.643 24.994 16.109 24.9927ZM10.8816 11.6555C10.9688 11.239 11.2948 11.0486 11.677 11.0111C11.7399 11.0055 11.8035 11.0092 11.8664 11.0092H24.1294C24.8433 11.0092 25.1867 11.3907 25.1878 12.1843C25.1884 12.4478 25.1884 12.7107 25.1884 12.996H10.7816C10.8108 12.5408 10.7917 12.0838 10.8816 11.6555Z" fill="#D92D20"/>
<path d="M20.4174 21.2758C20.2117 21.0511 19.9537 20.953 19.6642 21.0074C19.3101 21.0742 19.0611 21.2996 18.9425 21.6761C18.8194 22.0657 18.9054 22.4184 19.1612 22.71C19.5378 23.1402 19.925 23.5592 20.3241 24.0012C19.9245 24.442 19.5423 24.856 19.1685 25.2787C18.802 25.6933 18.7969 26.2827 19.1449 26.686C19.4877 27.0831 20.0464 27.1131 20.4118 26.7197C21.0323 26.0523 21.6433 25.3736 22.2448 24.6843C22.6006 24.2766 22.5938 23.7021 22.2358 23.2944C21.6366 22.6139 21.0279 21.9433 20.4174 21.2758Z" fill="#D92D20"/>
<path d="M26.7503 23.3201C26.1404 22.6202 25.5159 21.9352 24.8892 21.2534C24.6891 21.0355 24.4317 20.9512 24.1512 21.0093C23.7903 21.0842 23.5402 21.3134 23.4329 21.7086C23.3283 22.0926 23.4126 22.4329 23.6656 22.717C24.0405 23.1372 24.4188 23.5536 24.824 24.0032C24.4204 24.4458 24.0304 24.8604 23.6543 25.2906C23.2957 25.7015 23.3013 26.304 23.6515 26.698C23.9972 27.0869 24.5576 27.1026 24.919 26.7092C25.5311 26.0442 26.1365 25.3718 26.7351 24.6918C27.0808 24.2997 27.092 23.7128 26.7503 23.3201Z" fill="#D92D20"/>
</svg>
