<svg width="36" height="36" viewBox="0 0 36 36" fill="none" xmlns="http://www.w3.org/2000/svg">
<path d="M0 8C0 3.58172 3.58172 0 8 0H28C32.4183 0 36 3.58172 36 8V28C36 32.4183 32.4183 36 28 36H8C3.58172 36 0 32.4183 0 28V8Z" fill="#DFE6FB"/>
<g clip-path="url(#clip0_22100_3890)">
<path d="M21.3334 24V22.6667C21.3334 21.9594 21.0524 21.2811 20.5523 20.781C20.0522 20.281 19.3739 20 18.6667 20H13.3334C12.6261 20 11.9478 20.281 11.4477 20.781C10.9476 21.2811 10.6667 21.9594 10.6667 22.6667V24M25.3334 24V22.6667C25.3329 22.0758 25.1363 21.5018 24.7743 21.0349C24.4123 20.5679 23.9054 20.2344 23.3334 20.0867M20.6667 12.0867C21.2403 12.2335 21.7487 12.5671 22.1118 13.0349C22.4748 13.5026 22.6719 14.0779 22.6719 14.67C22.6719 15.2621 22.4748 15.8374 22.1118 16.3051C21.7487 16.7729 21.2403 17.1065 20.6667 17.2533M18.6667 14.6667C18.6667 16.1394 17.4728 17.3333 16 17.3333C14.5273 17.3333 13.3334 16.1394 13.3334 14.6667C13.3334 13.1939 14.5273 12 16 12C17.4728 12 18.6667 13.1939 18.6667 14.6667Z" stroke="#2A58E6" stroke-width="1.5" stroke-linecap="round" stroke-linejoin="round"/>
</g>
<defs>
<clipPath id="clip0_22100_3890">
<rect width="16" height="16" fill="white" transform="translate(10 10)"/>
</clipPath>
</defs>
</svg>
