<svg width="28" height="28" viewBox="0 0 28 28" fill="none" xmlns="http://www.w3.org/2000/svg">
<path d="M25.9936 0.00170898C26.277 0.130832 26.5872 0.223062 26.8387 0.397462C27.3903 0.781477 27.667 1.33486 27.667 2.01066C27.6687 6.04365 27.6687 10.0766 27.667 14.1096C27.667 15.2315 26.8068 16.1387 25.6834 16.1437C22.7843 16.1605 19.8868 16.1588 16.9877 16.1454C15.8659 16.1404 14.9856 15.2466 14.9822 14.1247C14.9739 10.0917 14.9755 6.05874 14.9822 2.02575C14.9839 1.07158 15.601 0.308585 16.5282 0.0570474C16.5701 0.0453089 16.607 0.021832 16.6473 0.0033859C19.761 0.00170898 22.8781 0.00170898 25.9936 0.00170898ZM25.9399 8.0744C25.9399 6.11241 25.9399 4.15041 25.9399 2.18841C25.9399 1.81614 25.8544 1.73061 25.4788 1.73061C22.7155 1.73061 19.9522 1.73061 17.1889 1.73061C16.7999 1.73061 16.7227 1.80272 16.7227 2.17835C16.7211 6.10234 16.7211 10.028 16.7227 13.952C16.7227 14.3411 16.7881 14.4065 17.1805 14.4065C19.9438 14.4081 22.7071 14.4081 25.4704 14.4065C25.8712 14.4065 25.9399 14.3343 25.9399 13.9336C25.9416 11.9816 25.9399 10.028 25.9399 8.0744Z" fill="currentColor"/>
<path d="M0.00167841 13.1873C0.0184461 13.1572 0.0419188 13.1287 0.0519795 13.0951C0.323616 12.1057 1.07816 11.5222 2.10602 11.5205C4.80562 11.5171 7.5069 11.5188 10.2065 11.5205C10.458 11.5205 10.7129 11.5155 10.9594 11.5574C11.9923 11.7268 12.6831 12.5367 12.6898 13.5831C12.6982 14.9515 12.6915 16.3198 12.6915 17.6882C12.6915 20.3176 12.6932 22.9453 12.6898 25.5748C12.6881 26.6279 12.0359 27.4328 11.0264 27.6374C10.8789 27.6676 10.7229 27.6676 10.5704 27.6676C7.75339 27.6692 4.93473 27.6692 2.11776 27.6692C1.05637 27.6692 0.342061 27.1242 0.0469494 26.0913C0.0368887 26.0577 0.0167677 26.0275 0 25.994C0.00167677 21.7262 0.00167841 17.4568 0.00167841 13.1873ZM1.73043 19.5831C1.73043 21.5552 1.73043 23.5256 1.73043 25.4976C1.73043 25.8514 1.82265 25.942 2.17813 25.942C4.94983 25.942 7.72153 25.942 10.4949 25.942C10.8755 25.942 10.9493 25.8682 10.9493 25.4809C10.9493 21.5652 10.9493 17.6496 10.9493 13.734C10.9493 13.3265 10.8873 13.2662 10.4781 13.2645C7.7232 13.2645 4.96995 13.2645 2.21501 13.2645C1.79414 13.2645 1.7321 13.3299 1.7321 13.7508C1.73043 15.6943 1.73043 17.6396 1.73043 19.5831Z" fill="currentColor"/>
<path d="M11.0292 0.00167692C11.0778 0.0218 11.1248 0.0469538 11.1751 0.0603691C12.0671 0.308553 12.6859 1.06988 12.6926 1.99721C12.706 3.74289 12.7093 5.48856 12.6926 7.23256C12.6808 8.341 11.8039 9.22306 10.6939 9.22809C7.79809 9.24318 4.90063 9.23983 2.00317 9.22977C1.07927 9.22641 0.312986 8.60428 0.0665005 7.71216C0.0530863 7.66185 0.0279337 7.61489 0.0078125 7.56626C0.0078125 5.60259 0.0078125 3.63892 0.0078125 1.67524C0.126863 1.40526 0.217409 1.11851 0.369995 0.871999C0.66846 0.387369 1.15305 0.150923 1.68291 0C4.79667 0.00167692 7.91211 0.00167692 11.0292 0.00167692ZM6.34768 1.73058C4.95261 1.73058 3.55921 1.73058 2.16414 1.73058C1.82711 1.73058 1.73489 1.82449 1.73489 2.1649C1.73321 3.79319 1.73321 5.42316 1.73489 7.05145C1.73489 7.4036 1.81369 7.48913 2.15743 7.48913C4.9459 7.4908 7.73604 7.4908 10.5245 7.48913C10.88 7.48913 10.9504 7.41534 10.9521 7.05648C10.9538 5.42819 10.9538 3.79822 10.9521 2.16993C10.9521 1.80604 10.8716 1.7289 10.5061 1.7289C9.11938 1.7289 7.73269 1.73058 6.34768 1.73058Z" fill="currentColor"/>
<path d="M21.3114 27.6693C19.8979 27.6693 18.4844 27.671 17.0709 27.6693C15.8686 27.6677 14.9849 26.799 14.9816 25.6C14.9749 23.908 14.9749 22.2143 14.9816 20.5223C14.9866 19.325 15.8686 18.4412 17.0675 18.4396C19.913 18.4345 22.7568 18.4345 25.6023 18.4396C26.8028 18.4429 27.668 19.3267 27.6697 20.5307C27.6714 22.2227 27.6714 23.9164 27.6697 25.6084C27.668 26.7973 26.7978 27.6677 25.6073 27.6693C24.1736 27.671 22.7434 27.6693 21.3114 27.6693ZM21.3215 25.9421C22.7065 25.9421 24.0932 25.9421 25.4782 25.9421C25.8538 25.9421 25.941 25.8566 25.941 25.486C25.941 23.8745 25.941 22.2646 25.941 20.6531C25.941 20.2523 25.8722 20.1819 25.4698 20.1819C22.7082 20.1819 19.9448 20.1819 17.1832 20.1819C16.7892 20.1819 16.7238 20.2456 16.7238 20.6347C16.7221 22.2462 16.7221 23.856 16.7238 25.4675C16.7238 25.8734 16.7942 25.9421 17.1916 25.9421C18.5682 25.9421 19.9448 25.9421 21.3215 25.9421Z" fill="currentColor"/>
</svg>
