<svg width="28" height="29" viewBox="0 0 28 29" fill="none" xmlns="http://www.w3.org/2000/svg">
<path d="M24.0164 5.65718C24.6648 5.65718 25.2968 5.65718 25.9289 5.65718C27.1421 5.65948 27.9985 6.61897 27.9985 7.9844C28.0005 13.9697 28.0005 19.9573 27.9985 25.9425C27.9985 27.3103 27.1441 28.279 25.9371 28.279C18.4786 28.279 11.0201 28.2813 3.56155 28.279C1.53483 28.279 0.00152922 26.5514 0.00152922 24.2634C-0.00050974 17.5101 -0.00050974 10.7591 0.00152922 4.00575C0.00152922 1.73619 1.53483 0.00172985 3.53912 0.00172985C9.67435 -0.000576616 15.8096 -0.000576616 21.9468 0.00172985C23.1356 0.00172985 23.996 0.972748 24.0001 2.3128C24.0021 3.38531 24.0021 4.45782 24.0021 5.53032C24.0021 5.55108 24.0062 5.57414 24.0164 5.65718ZM1.99767 7.53925C1.99767 7.71224 1.99767 7.82987 1.99767 7.9475C1.99767 13.3308 1.99767 18.7141 1.99767 24.0997C1.99767 25.3336 2.60732 26.0186 3.70224 26.0186C11.0139 26.0186 18.3236 26.0186 25.6353 26.0186C25.7475 26.0186 25.8596 26.0186 25.984 26.0186C25.984 24.4964 25.984 23.0087 25.984 21.4911C25.8535 21.4911 25.7413 21.4911 25.6292 21.4911C24.4099 21.4911 23.1926 21.4934 21.9733 21.4887C21.7552 21.4887 21.537 21.4634 21.3229 21.4242C19.2738 21.0436 17.8424 18.9286 18.0096 16.5345C18.1666 14.281 19.9323 12.452 21.9591 12.4451C23.1886 12.4405 24.416 12.4451 25.6455 12.4451C25.7556 12.4451 25.8678 12.4451 25.9799 12.4451C25.9799 10.9159 25.9799 9.42594 25.9799 7.91751C25.8249 7.91751 25.6904 7.91751 25.5558 7.91751C18.3603 7.91751 11.1628 7.91521 3.9673 7.92212C3.30872 7.91982 2.65829 7.89675 1.99767 7.53925ZM21.9897 2.25976C21.8571 2.25976 21.7531 2.25976 21.6512 2.25976C15.6628 2.25976 9.67435 2.25976 3.68389 2.25976C3.60029 2.25976 3.51669 2.25745 3.4331 2.26437C2.45847 2.34279 1.81212 3.35302 2.05884 4.40708C2.23623 5.16821 2.83568 5.65487 3.61456 5.65487C9.656 5.65718 15.6974 5.65487 21.7368 5.65487C21.8163 5.65487 21.8959 5.64334 21.9876 5.63642C21.9897 4.51086 21.9897 3.40838 21.9897 2.25976ZM25.9901 14.7077C24.6056 14.7077 23.2538 14.6685 21.904 14.7193C20.646 14.7654 19.7978 16.0847 20.0608 17.4778C20.2504 18.4834 21.068 19.2192 22.0366 19.2284C23.2946 19.2399 24.5526 19.2307 25.8127 19.2307C25.8718 19.2307 25.9289 19.2123 25.9921 19.203C25.9901 17.7038 25.9901 16.2254 25.9901 14.7077Z" fill="currentColor"/>
</svg>
