<svg width="28" height="28" viewBox="0 0 28 28" fill="none" xmlns="http://www.w3.org/2000/svg">
<path d="M15.9068 0.00134664C16.2709 0.133318 16.6635 0.21681 16.9951 0.403993C18.0686 1.00998 18.6412 1.94859 18.6547 3.18077C18.6736 4.90178 18.6642 6.62414 18.6574 8.34515C18.656 8.89862 18.277 9.29184 17.7789 9.2905C17.274 9.28915 16.8977 8.87842 16.8977 8.31553C16.8963 6.64838 16.8977 4.98124 16.8963 3.31409C16.8949 2.33777 16.298 1.74256 15.3125 1.74256C12.9897 1.74121 10.6681 1.74256 8.34527 1.74256C8.28165 1.74256 8.21938 1.74256 8.15576 1.74256C8.1517 1.75872 8.14764 1.77353 8.14358 1.78969C8.58487 1.93782 9.02616 2.08191 9.4661 2.23408C9.76661 2.33777 10.0779 2.42127 10.3582 2.56401C11.1365 2.95992 11.5764 3.60092 11.6495 4.47624C11.6631 4.63784 11.6631 4.80213 11.6631 4.96508C11.6631 10.7179 11.6631 16.4721 11.6631 22.225C11.6631 22.3502 11.6631 22.4741 11.6631 22.6115C11.7754 22.6169 11.8553 22.6236 11.9352 22.6236C13.0641 22.6236 14.1944 22.6263 15.3234 22.6236C16.2912 22.6223 16.8936 22.0244 16.8949 21.0682C16.8963 19.3917 16.8949 17.7164 16.8963 16.0399C16.8963 15.578 17.1278 15.2454 17.5203 15.1228C18.0401 14.9612 18.5748 15.3033 18.6439 15.8419C18.6479 15.8783 18.6547 15.9146 18.6547 15.9496C18.6493 17.7972 18.6804 19.6475 18.6249 21.4938C18.5802 23.0034 17.1318 24.3406 15.609 24.3581C14.4069 24.3729 13.2049 24.3621 12.0028 24.3621C11.9027 24.3621 11.8039 24.3621 11.6631 24.3621C11.6631 24.7176 11.659 25.0583 11.6644 25.399C11.6739 26.0212 11.5074 26.5868 11.0824 27.0487C10.4204 27.7678 9.58793 28.0385 8.65526 27.7409C6.28637 26.9854 3.92966 26.1949 1.5743 25.4004C0.766168 25.1284 0.26667 24.5439 0.0554998 23.7198C0.0446706 23.678 0.0189511 23.6417 0 23.6026C0.00270731 16.3846 0.00270731 9.17199 0.00270731 1.95802C0.0243658 1.89069 0.0473779 1.82336 0.066329 1.75468C0.272084 1.02749 0.716083 0.499605 1.40915 0.189877C1.58784 0.110425 1.78276 0.0619456 1.96957 0C6.6153 0.00134664 11.261 0.00134664 15.9068 0.00134664ZM9.90197 15.0891C9.90197 11.6633 9.90197 8.23877 9.90197 4.8129C9.90197 4.33215 9.79639 4.17864 9.35104 4.03185C7.12834 3.29524 4.90429 2.55997 2.68023 1.82605C2.08192 1.62809 1.75027 1.87049 1.75027 2.50341C1.75027 9.34436 1.75027 16.1867 1.75027 23.0276C1.75027 23.4895 1.8721 23.6592 2.31204 23.806C4.50767 24.5345 6.71006 25.2469 8.89756 25.9996C9.54732 26.2232 9.91957 25.9296 9.91416 25.2563C9.88844 21.8668 9.90197 18.4773 9.90197 15.0891Z" fill="currentColor"/>
<path d="M24.981 13.049C24.223 13.049 23.5313 13.049 22.8395 13.049C20.5722 13.049 18.3062 13.0503 16.0388 13.0476C15.5799 13.0476 15.2212 12.7285 15.1562 12.2814C15.098 11.8828 15.3728 11.4653 15.7843 11.3482C15.9034 11.3145 16.0347 11.3132 16.162 11.3132C18.9843 11.3118 21.8067 11.3118 24.6277 11.3118C24.7252 11.3118 24.8226 11.3118 24.9756 11.3118C24.8768 11.2041 24.8145 11.1327 24.7482 11.0654C23.8791 10.2008 23.006 9.34033 22.1424 8.47039C21.6524 7.97752 21.8257 7.20724 22.4673 7.0039C22.8314 6.88809 23.1414 6.99447 23.4094 7.2638C24.3597 8.21453 25.314 9.16122 26.267 10.1079C26.7435 10.5819 27.2227 11.0519 27.6992 11.5259C28.0944 11.9191 28.1012 12.4363 27.71 12.8254C26.2751 14.2542 24.8389 15.6817 23.3986 17.1037C22.8869 17.6101 22.1153 17.4485 21.9055 16.7967C21.7891 16.4331 21.8988 16.1261 22.1681 15.8608C23.0345 15.0057 23.8954 14.1465 24.7563 13.2873C24.8199 13.224 24.8781 13.1581 24.981 13.049Z" fill="currentColor"/>
</svg>
