<svg width="27" height="27" viewBox="0 0 27 27" fill="none" xmlns="http://www.w3.org/2000/svg">
<path d="M0.0042447 15.9208C0.0911761 15.4266 0.142065 14.9218 0.271402 14.4403C1.35698 10.3848 3.95856 7.87128 8.03586 6.90831C8.68042 6.75559 9.36103 6.76407 10.0268 6.69832C10.1031 6.68983 10.1795 6.68771 10.2706 6.68347C10.4678 5.59111 10.665 4.50723 10.8622 3.42547C10.8813 3.32366 10.8961 3.21973 10.9194 3.11792C11.0572 2.56007 11.6933 2.32675 12.1556 2.66824C12.2382 2.72976 12.3124 2.80611 12.3867 2.88035C13.2793 3.77121 14.1719 4.66207 15.0582 5.55929C15.1897 5.69292 15.2787 5.70989 15.4505 5.6102C16.8477 4.81055 18.2725 4.77237 19.6507 5.61868C21.0374 6.46924 21.7435 7.7419 21.6989 9.38786C21.6798 10.0581 21.4678 10.686 21.118 11.2587C21.0141 11.4305 21.0204 11.528 21.1667 11.6723C22.0594 12.5504 22.9393 13.4434 23.8277 14.3236C24.0948 14.5888 24.2963 14.8624 24.1712 15.2654C24.0439 15.679 23.7111 15.7936 23.3337 15.8593C22.2417 16.0523 21.1498 16.2517 20.0387 16.4511C20.0218 16.7565 20.0091 17.0577 19.9879 17.3589C19.8055 20.0336 18.7115 22.2777 16.7544 24.0934C15.1918 25.5421 13.3387 26.4202 11.2226 26.6514C7.98708 27.0057 5.17772 26.0321 2.8751 23.7222C1.21704 22.0571 0.284113 20.0294 0.0487622 17.6877C0.0424014 17.6198 0.0169622 17.5541 0 17.4862C0.00424055 16.9644 0.0042447 16.4426 0.0042447 15.9208ZM9.9759 8.31035C7.37008 8.32308 4.16211 9.56816 2.5613 12.7413C0.96473 15.9039 1.45664 19.8279 3.70201 22.3795C5.92618 24.9079 9.67483 25.4445 11.3202 25.0118C10.595 24.2885 9.87837 23.5674 9.15323 22.8547C9.10235 22.8059 8.98362 22.7868 8.90941 22.8059C8.12703 22.9968 7.45066 22.8229 6.87818 22.248C6.10428 21.4717 5.32825 20.6975 4.55435 19.9233C3.59811 18.9667 3.59811 17.8298 4.55435 16.8732C6.07247 15.3545 7.59272 13.8358 9.10872 12.3128C9.18505 12.2365 9.27197 12.141 9.29106 12.0435C9.52429 10.8048 9.74691 9.56816 9.9759 8.31035ZM12.198 4.98236C12.1916 4.99084 12.1831 4.99508 12.181 5.00357C11.7548 7.34101 11.3329 9.68058 10.9004 12.018C10.8685 12.1941 10.8982 12.3022 11.0233 12.4253C12.128 13.5219 13.2284 14.6227 14.3246 15.7257C14.4242 15.8254 14.5069 15.8636 14.6617 15.836C16.7248 15.4542 18.7899 15.0851 20.855 14.7118C21.1561 14.6567 21.4551 14.593 21.7434 14.5379C18.5545 11.3435 15.3784 8.16611 12.198 4.98236ZM9.98227 13.6746C9.96319 13.6916 9.92926 13.717 9.89958 13.7467C8.46839 15.1784 7.03508 16.6102 5.60601 18.0419C5.34522 18.3028 5.35158 18.4831 5.62086 18.7525C6.3884 19.5224 7.15594 20.2903 7.92348 21.0581C8.2606 21.3954 8.40902 21.3954 8.74614 21.0581C10.1286 19.6752 11.511 18.2922 12.8934 16.9093C12.9528 16.8499 13.01 16.7862 13.0503 16.7396C12.0283 15.7193 11.0148 14.7076 9.98227 13.6746ZM16.1311 22.5217C17.6237 20.8969 18.4104 18.9943 18.4422 16.7735C18.387 16.7693 18.3595 16.7608 18.3362 16.765C17.5686 16.9029 16.8011 17.0408 16.0314 17.1829C15.5968 17.2635 15.1218 17.2635 14.7381 17.4501C14.3522 17.6389 14.0574 18.0122 13.7246 18.3049C13.7118 18.3155 13.6991 18.3304 13.6885 18.341C13.3959 18.6337 13.1012 18.9264 12.8171 19.2106C13.9281 20.3221 15.0158 21.4081 16.1311 22.5217ZM10.313 21.7708C11.2035 22.6638 12.111 23.5737 13.0206 24.4773C13.0588 24.5155 13.1584 24.5431 13.2008 24.5219C13.7776 24.2334 14.35 23.9343 14.9162 23.6416C13.8009 22.5238 12.7344 21.4569 11.6848 20.4027C11.2417 20.846 10.7816 21.3042 10.313 21.7708ZM16.4555 6.85952C17.5962 8.00067 18.7284 9.13121 19.8543 10.2596C20.2911 9.59573 20.238 8.30399 19.4366 7.42373C18.6818 6.59651 17.4117 6.35258 16.4555 6.85952Z" fill="currentColor"/>
<path d="M17.8018 0C18.2301 0.205746 18.3743 0.557847 18.3552 1.01388C18.3383 1.46355 18.3552 1.91534 18.3489 2.36714C18.3404 2.89529 18.0224 3.23891 17.5538 3.23678C17.0894 3.23466 16.7693 2.87832 16.765 2.35865C16.7629 1.91534 16.7799 1.47416 16.7608 1.03085C16.7396 0.559965 16.8838 0.201504 17.329 0C17.4902 0 17.6449 0 17.8018 0Z" fill="currentColor"/>
<path d="M25.101 9.96069C24.8402 9.96069 24.5794 9.96493 24.3186 9.95857C23.8225 9.94584 23.4896 9.63404 23.4833 9.18225C23.4769 8.72197 23.7843 8.39745 24.289 8.38048C24.8275 8.36351 25.3661 8.36139 25.9046 8.38048C26.4241 8.39745 26.7294 8.72622 26.7146 9.20346C26.6997 9.65101 26.3626 9.95009 25.858 9.95857C25.6057 9.96281 25.3533 9.96069 25.101 9.96069Z" fill="currentColor"/>
<path d="M24.2818 3.34924C24.2267 3.44893 24.1567 3.65891 24.0189 3.80951C23.6542 4.20616 23.2662 4.58159 22.8803 4.95702C22.5326 5.29428 22.0555 5.29216 21.7396 4.96339C21.4321 4.6431 21.4385 4.18282 21.7714 3.84133C22.153 3.44893 22.541 3.06077 22.9333 2.67897C23.1814 2.43929 23.4803 2.3799 23.8005 2.51352C24.11 2.64715 24.2585 2.89956 24.2818 3.34924Z" fill="currentColor"/>
</svg>
