<svg width="28" height="28" viewBox="0 0 28 28" fill="none" xmlns="http://www.w3.org/2000/svg">
<path d="M18.58 17.1468C19.1443 16.9135 19.6394 16.7086 20.1735 16.4876C20.1735 16.1369 20.1719 15.7434 20.1735 15.3506C20.1768 14.6987 20.5953 14.2371 21.1726 14.2452C21.7385 14.2541 22.1343 14.6995 22.1432 15.3449C22.1473 15.6689 22.1522 15.9928 22.1408 16.3167C22.1351 16.4738 22.1896 16.5443 22.3394 16.5969C22.7865 16.7556 23.227 16.933 23.7514 17.1346C23.9924 16.8852 24.2814 16.5766 24.5811 16.2786C24.8995 15.962 25.2765 15.8681 25.6974 16.0446C26.3146 16.3029 26.4848 17.0836 26.0296 17.5897C25.7789 17.8683 25.5077 18.1299 25.2333 18.3858C25.1079 18.5024 25.0973 18.5882 25.1747 18.7469C25.3522 19.1081 25.5142 19.4798 25.6429 19.8612C25.7007 20.0337 25.7723 20.0823 25.9393 20.0774C26.2853 20.0685 26.6314 20.0693 26.9774 20.0758C27.5678 20.0872 28.0018 20.5058 28.0018 21.0565C28.0026 21.6031 27.5987 22.0072 27.0084 22.0307C26.6525 22.0444 26.2959 22.0404 25.9401 22.0323C25.7723 22.0283 25.6868 22.0728 25.6453 22.2526C25.5916 22.4866 25.5004 22.715 25.4043 22.9369C25.3131 23.149 25.195 23.349 25.068 23.596C25.3563 23.8722 25.6543 24.1467 25.9401 24.4326C26.3733 24.8658 26.3969 25.4715 26.0052 25.8659C25.6144 26.2603 24.9988 26.2409 24.564 25.8181C24.3238 25.5849 24.0819 25.3525 23.854 25.1071C23.74 24.9849 23.6553 24.9646 23.4932 25.0432C23.1211 25.2237 22.736 25.3825 22.346 25.5185C22.1864 25.5736 22.14 25.6432 22.1432 25.7963C22.1497 26.1404 22.1522 26.4846 22.1432 26.8288C22.1269 27.4515 21.7157 27.871 21.1449 27.8597C20.5815 27.8491 20.1809 27.4094 20.1752 26.7931C20.1719 26.4595 20.1686 26.1251 20.1768 25.7914C20.1809 25.6367 20.1312 25.572 19.9724 25.5177C19.5905 25.3865 19.2127 25.2335 18.852 25.0529C18.6777 24.9654 18.5865 24.9889 18.4652 25.1185C18.2291 25.3695 17.9824 25.6116 17.7324 25.8497C17.3155 26.2465 16.7211 26.2554 16.3343 25.8789C15.9345 25.4894 15.9337 24.8958 16.3482 24.469C16.6446 24.1645 16.9589 23.8778 17.2276 23.6187C16.9939 23.0599 16.7846 22.5595 16.5648 22.0347C16.1943 22.0347 15.7977 22.0396 15.4012 22.0339C14.7596 22.0242 14.3085 21.6136 14.3125 21.0524C14.3166 20.4864 14.7718 20.0799 15.4093 20.0758C15.8051 20.0734 16.2008 20.075 16.5656 20.075C16.787 19.5462 16.9971 19.0474 17.2324 18.4854C16.9719 18.2392 16.6714 17.9679 16.3848 17.682C15.9386 17.2375 15.9174 16.6584 16.3197 16.2527C16.7235 15.8462 17.3122 15.86 17.7568 16.2965C18.0459 16.5815 18.3211 16.8787 18.58 17.1468ZM21.1775 18.4133C19.8153 18.3153 18.4302 19.5891 18.4888 21.1342C18.5426 22.5571 19.698 23.7135 21.1775 23.7126C22.6765 23.7126 23.8328 22.536 23.8312 21.0136C23.8295 19.5745 22.6432 18.4117 21.1775 18.4133Z" fill="currentColor"/>
<path d="M13.3566 14.2599C9.45471 14.2794 6.19851 11.0984 6.17978 7.24863C6.16024 3.21662 9.3171 0.0178898 13.3322 7.40795e-05C17.2675 -0.0177416 20.5041 3.18018 20.5204 7.10206C20.5367 11.0377 17.331 14.2405 13.3566 14.2599ZM18.5475 7.12069C18.5361 4.24183 16.2098 1.94846 13.3126 1.95899C10.4473 1.96952 8.11933 4.30419 8.13236 7.15308C8.14539 10.0036 10.4847 12.3067 13.3599 12.3002C16.2326 12.2945 18.5589 9.97201 18.5475 7.12069Z" fill="currentColor"/>
<path d="M7.6429 26.5829C5.86213 26.5829 4.08135 26.5869 2.30058 26.5812C1.16062 26.5772 0.324386 25.9455 0.0516108 24.9033C0.0442825 24.8742 0.0255547 24.845 0.0255547 24.8167C0.0304402 23.8166 -0.0558708 22.8051 0.0638246 21.8188C0.235632 20.4081 1.12154 19.3724 2.20043 18.5075C3.5757 17.4045 5.17083 16.734 6.85063 16.2473C8.92291 15.6473 11.0432 15.3816 13.1994 15.3735C13.8703 15.3711 14.3173 15.7517 14.319 16.3429C14.3206 16.9259 13.8744 17.3244 13.2059 17.3276C10.8934 17.3398 8.62978 17.6515 6.44351 18.4265C5.29704 18.833 4.21896 19.3683 3.28013 20.1498C2.64338 20.6794 2.09865 21.294 1.98628 22.1411C1.91137 22.7088 1.95778 23.2926 1.95452 23.8692C1.94964 24.6879 1.89183 24.6288 2.70445 24.6288C6.21551 24.628 9.72576 24.6272 13.2368 24.6296C13.9387 24.6296 14.3955 25.1204 14.3035 25.7641C14.2441 26.1861 13.9004 26.5221 13.473 26.5691C13.3525 26.5829 13.2295 26.5829 13.1074 26.5829C11.2859 26.5837 9.46439 26.5829 7.6429 26.5829Z" fill="currentColor"/>
</svg>
