<svg width="28" height="28" viewBox="0 0 28 28" fill="none" xmlns="http://www.w3.org/2000/svg">
<path d="M0 26.4998C0 21.2684 0 16.037 0 10.8056C0.177898 10.5901 0.325904 10.3289 0.538069 10.1653C3.43912 7.92167 6.34966 5.69144 9.25727 3.45728C10.652 2.38582 12.0453 1.31358 13.4408 0.242916C13.8593 -0.0780478 14.148 -0.0796214 14.568 0.230329C14.6504 0.290904 14.732 0.354625 14.8129 0.417559C19.0592 3.68699 23.3054 6.95799 27.5538 10.2243C27.8527 10.454 28.0007 10.734 28 11.1392C27.9942 16.1338 27.9971 21.1284 27.9956 26.123C27.9956 27.1339 27.3321 27.8529 26.4011 27.8553C25.2623 27.8576 24.1227 27.8561 22.9839 27.8561C15.8759 27.8561 8.76877 27.8545 1.66087 27.86C1.2205 27.86 0.808568 27.7664 0.516932 27.414C0.301121 27.1504 0.169149 26.8066 0 26.4998ZM1.65868 12.0769C1.65868 16.7694 1.65868 21.4203 1.65868 26.064C9.90105 26.064 18.1237 26.064 26.3355 26.064C26.3355 21.3982 26.3355 16.7561 26.3355 12.0808C26.2035 12.1571 26.1007 12.2161 25.9986 12.2759C22.1935 14.525 18.3869 16.771 14.5862 19.028C14.1939 19.2608 13.8556 19.2608 13.4605 19.0272C10.0556 17.0086 6.64421 15.0049 3.23352 12.9973C2.71806 12.6944 2.20112 12.3939 1.65868 12.0769ZM6.60775 10.3848C6.77908 9.66023 6.94678 8.94829 7.1152 8.23634C7.37111 7.15466 8.17821 6.64411 9.17123 6.93754C9.68816 7.09015 10.208 7.23018 10.7198 7.40089C10.8919 7.45832 10.9612 7.40404 11.0443 7.2585C11.462 6.52139 11.8871 5.78899 12.3122 5.05659C12.8444 4.13933 13.7623 3.92142 14.5957 4.52323C17.2583 6.44508 19.918 8.37165 22.5799 10.2951C22.6383 10.3376 22.7075 10.3887 22.7724 10.3895C23.4607 10.3966 24.1489 10.3934 24.9065 10.3934C24.7832 10.2888 24.7176 10.2282 24.6476 10.1747C21.1866 7.50945 17.7242 4.84734 14.2676 2.17421C14.0685 2.02002 13.9482 2.02789 13.7543 2.17736C10.2882 4.85127 6.817 7.51574 3.34653 10.1826C3.27799 10.2353 3.21457 10.2959 3.11322 10.384C4.30383 10.3848 5.43974 10.3848 6.60775 10.3848ZM17.5558 15.2386C19.267 14.2261 20.9533 13.2286 22.6397 12.2311C22.631 12.2154 22.6215 12.1988 22.6127 12.1831C16.8712 12.1831 11.1296 12.1831 5.38725 12.1831C5.38142 12.1988 5.37632 12.2146 5.37048 12.2303C7.05541 13.2231 8.74034 14.2151 10.41 15.1992C10.4457 15.1796 10.4581 15.178 10.461 15.1709C10.4982 15.093 10.5332 15.0144 10.5711 14.9373C11.0588 13.9374 11.8018 13.275 12.8451 13.1145C13.4437 13.0225 14.062 13.0382 14.6693 13.0618C15.0258 13.0752 15.3947 13.1515 15.7309 13.2813C16.5999 13.6149 17.1818 14.2961 17.5558 15.2386ZM18.8543 9.80655C18.8609 9.79082 18.8681 9.77508 18.8747 9.75935C17.1555 8.5164 15.4363 7.27345 13.7018 6.01949C13.3278 6.66771 12.964 7.29705 12.587 7.94999C14.6977 8.57461 16.7757 9.19058 18.8543 9.80655ZM11.941 16.0992C12.6052 16.4894 13.2571 16.8772 13.9154 17.2501C13.984 17.2886 14.1101 17.2682 14.1845 17.2249C14.7546 16.8992 15.3145 16.5531 15.8869 16.2313C16.0604 16.1338 16.0684 16.026 16.0035 15.8592C15.8038 15.3463 15.4698 14.9569 14.9588 14.8846C14.4039 14.8059 13.8338 14.8012 13.2731 14.8311C12.5987 14.8688 12.0985 15.3699 11.941 16.0992ZM8.72284 8.6525C8.58213 9.24644 8.44943 9.80891 8.31382 10.3832C10.3677 10.3832 12.3916 10.3832 14.4149 10.3832C14.417 10.369 14.42 10.3557 14.4221 10.3415C12.5302 9.78059 10.6382 9.21969 8.72284 8.6525Z" fill="currentColor"/>
</svg>
