<svg width="31" height="31" viewBox="0 0 31 31" fill="none" xmlns="http://www.w3.org/2000/svg">
<g clip-path="url(#clip0_22294_465)">
<path d="M15.5001 19.3751C17.6402 19.3751 19.3751 17.6402 19.3751 15.5001C19.3751 13.36 17.6402 11.6251 15.5001 11.6251C13.36 11.6251 11.6251 13.36 11.6251 15.5001C11.6251 17.6402 13.36 19.3751 15.5001 19.3751Z" stroke="currentColor" stroke-width="2" stroke-linecap="round" stroke-linejoin="round"/>
<path d="M25.0584 19.3751C24.8865 19.7647 24.8352 20.1968 24.9112 20.6158C24.9871 21.0349 25.1869 21.4215 25.4847 21.7259L25.5622 21.8034C25.8024 22.0433 25.9929 22.3283 26.1229 22.6419C26.2529 22.9555 26.3198 23.2916 26.3198 23.6311C26.3198 23.9706 26.2529 24.3068 26.1229 24.6204C25.9929 24.934 25.8024 25.2189 25.5622 25.4588C25.3222 25.699 25.0373 25.8896 24.7237 26.0196C24.4101 26.1496 24.0739 26.2165 23.7345 26.2165C23.395 26.2165 23.0588 26.1496 22.7452 26.0196C22.4316 25.8896 22.1467 25.699 21.9067 25.4588L21.8292 25.3813C21.5248 25.0836 21.1382 24.8838 20.7192 24.8078C20.3002 24.7319 19.868 24.7831 19.4784 24.9551C19.0964 25.1188 18.7706 25.3907 18.5411 25.7372C18.3116 26.0838 18.1884 26.4899 18.1867 26.9055V27.1251C18.1867 27.8102 17.9146 28.4673 17.4301 28.9518C16.9456 29.4362 16.2886 29.7084 15.6034 29.7084C14.9183 29.7084 14.2612 29.4362 13.7767 28.9518C13.2923 28.4673 13.0201 27.8102 13.0201 27.1251V27.0088C13.0101 26.5813 12.8717 26.1667 12.6229 25.8188C12.3741 25.471 12.0264 25.206 11.6251 25.0584C11.2355 24.8865 10.8033 24.8352 10.3843 24.9112C9.96531 24.9871 9.57867 25.1869 9.27425 25.4847L9.19675 25.5622C8.95683 25.8024 8.67191 25.9929 8.3583 26.1229C8.04469 26.2529 7.70853 26.3198 7.36904 26.3198C7.02955 26.3198 6.69339 26.2529 6.37978 26.1229C6.06617 25.9929 5.78125 25.8024 5.54133 25.5622C5.30114 25.3222 5.1106 25.0373 4.98059 24.7237C4.85059 24.4101 4.78367 24.0739 4.78367 23.7345C4.78367 23.395 4.85059 23.0588 4.98059 22.7452C5.1106 22.4316 5.30114 22.1467 5.54133 21.9067L5.61883 21.8292C5.91661 21.5248 6.11636 21.1382 6.19234 20.7192C6.26831 20.3002 6.21702 19.868 6.04508 19.4784C5.88135 19.0964 5.60947 18.7706 5.26293 18.5411C4.91639 18.3116 4.51031 18.1884 4.09466 18.1867H3.87508C3.18994 18.1867 2.53286 17.9146 2.04839 17.4301C1.56392 16.9456 1.29175 16.2886 1.29175 15.6034C1.29175 14.9183 1.56392 14.2612 2.04839 13.7767C2.53286 13.2923 3.18994 13.0201 3.87508 13.0201H3.99133C4.41887 13.0101 4.8335 12.8717 5.18134 12.6229C5.52918 12.3741 5.79413 12.0264 5.94175 11.6251C6.11369 11.2355 6.16498 10.8033 6.089 10.3843C6.01303 9.96531 5.81328 9.57867 5.5155 9.27425L5.438 9.19675C5.19781 8.95683 5.00727 8.67191 4.87726 8.3583C4.74726 8.04469 4.68034 7.70853 4.68034 7.36904C4.68034 7.02955 4.74726 6.69339 4.87726 6.37978C5.00727 6.06617 5.19781 5.78125 5.438 5.54133C5.67792 5.30114 5.96283 5.1106 6.27644 4.98059C6.59006 4.85059 6.92622 4.78367 7.26571 4.78367C7.6052 4.78367 7.94136 4.85059 8.25497 4.98059C8.56858 5.1106 8.85349 5.30114 9.09342 5.54133L9.17092 5.61883C9.47533 5.91661 9.86198 6.11636 10.281 6.19234C10.7 6.26831 11.1322 6.21702 11.5217 6.04508H11.6251C12.0071 5.88135 12.3329 5.60947 12.5624 5.26293C12.7919 4.91639 12.9151 4.51031 12.9167 4.09466V3.87508C12.9167 3.18994 13.1889 2.53286 13.6734 2.04839C14.1579 1.56392 14.8149 1.29175 15.5001 1.29175C16.1852 1.29175 16.8423 1.56392 17.3268 2.04839C17.8112 2.53286 18.0834 3.18994 18.0834 3.87508V3.99133C18.0851 4.40697 18.2082 4.81306 18.4377 5.1596C18.6672 5.50614 18.993 5.77801 19.3751 5.94175C19.7647 6.11369 20.1968 6.16498 20.6158 6.089C21.0349 6.01303 21.4215 5.81328 21.7259 5.5155L21.8034 5.438C22.0433 5.19781 22.3283 5.00727 22.6419 4.87726C22.9555 4.74726 23.2916 4.68034 23.6311 4.68034C23.9706 4.68034 24.3068 4.74726 24.6204 4.87726C24.934 5.00727 25.2189 5.19781 25.4588 5.438C25.699 5.67792 25.8896 5.96283 26.0196 6.27644C26.1496 6.59006 26.2165 6.92622 26.2165 7.26571C26.2165 7.6052 26.1496 7.94136 26.0196 8.25497C25.8896 8.56858 25.699 8.85349 25.4588 9.09342L25.3813 9.17092C25.0836 9.47533 24.8838 9.86198 24.8078 10.281C24.7319 10.7 24.7831 11.1322 24.9551 11.5217V11.6251C25.1188 12.0071 25.3907 12.3329 25.7372 12.5624C26.0838 12.7919 26.4899 12.9151 26.9055 12.9167H27.1251C27.8102 12.9167 28.4673 13.1889 28.9518 13.6734C29.4362 14.1579 29.7084 14.8149 29.7084 15.5001C29.7084 16.1852 29.4362 16.8423 28.9518 17.3268C28.4673 17.8112 27.8102 18.0834 27.1251 18.0834H27.0088C26.5932 18.0851 26.1871 18.2082 25.8406 18.4377C25.494 18.6672 25.2222 18.993 25.0584 19.3751Z" stroke="currentColor" stroke-width="2" stroke-linecap="round" stroke-linejoin="round"/>
</g>
<defs>
<clipPath id="clip0_22294_465">
<rect width="31" height="31" fill="currentColor"/>
</clipPath>
</defs>
</svg>
