<svg width="28" height="32" viewBox="0 0 28 32" fill="none" xmlns="http://www.w3.org/2000/svg">
<path d="M14.4883 0.00188847C14.6914 0.0566006 14.8946 0.105652 15.0959 0.166024C16.9836 0.728238 18.2563 2.5243 18.175 4.51092C18.0937 6.49187 16.6733 8.18606 14.7561 8.58603C12.2127 9.11806 9.76529 7.13144 9.69695 4.47696C9.63969 2.2847 11.0896 0.460338 13.2064 0.0603733C13.2526 0.0509402 13.295 0.0207529 13.3375 0C13.7199 0.00188662 14.1041 0.00188847 14.4883 0.00188847ZM11.5145 4.33735C11.5163 5.6844 12.5987 6.79562 13.9175 6.80505C15.2419 6.81449 16.3501 5.68251 16.3446 4.32603C16.3372 2.97332 15.2566 1.86587 13.9378 1.85833C12.6079 1.85267 11.5126 2.97332 11.5145 4.33735Z" fill="currentColor"/>
<path d="M8.24071 12.0952C8.63044 11.3217 9.21411 10.784 10.0508 10.5765C10.3224 10.5085 10.6087 10.4802 10.8876 10.4784C12.8362 10.4708 14.7867 10.4746 16.7354 10.4746C18.213 10.4746 18.8725 10.8462 19.6057 12.0575C21.6541 11.9348 23.6693 11.9876 25.6826 12.0122C27.0088 12.0292 27.9748 13.0649 27.9878 14.4176C28.0044 16.0269 28.0044 17.6362 27.9859 19.2455C27.9767 20.0549 27.6405 20.7227 26.9792 21.1906C26.8259 21.2981 26.7816 21.4113 26.7816 21.5943C26.7872 23.7809 26.7853 25.9675 26.7853 28.156C26.7853 28.9069 26.427 29.271 25.6863 29.271C23.939 29.2729 22.1916 29.2729 20.4443 29.271C19.7258 29.271 19.3601 28.8993 19.3582 28.1673C19.3564 26.0015 19.3582 23.8338 19.3564 21.6679C19.3564 21.5849 19.3693 21.5 19.3508 21.4208C19.3121 21.2415 19.2252 21.168 19.0572 21.3076C18.8688 21.4623 18.6619 21.5943 18.4883 21.7641C18.4107 21.8396 18.3645 21.9849 18.3645 22.0999C18.3571 24.8959 18.359 27.6919 18.359 30.486C18.359 30.5898 18.3627 30.6935 18.3571 30.7954C18.3257 31.3199 17.9434 31.6972 17.4262 31.6972C15.0933 31.701 12.7605 31.701 10.4276 31.6972C9.85875 31.6953 9.50964 31.301 9.50964 30.669C9.5078 28.1107 9.50779 25.5525 9.50779 22.9942C9.50779 22.881 9.50779 22.7678 9.50779 22.6546C9.50779 21.8226 9.50595 21.8245 8.841 21.3528C8.69509 21.2491 8.61936 21.2698 8.61012 21.4566C8.60643 21.5283 8.60827 21.6019 8.60827 21.6736C8.60827 23.8394 8.60827 26.0053 8.60827 28.173C8.60827 28.9163 8.26103 29.271 7.53144 29.2729C5.78411 29.2748 4.03678 29.2748 2.28945 29.2729C1.54877 29.2729 1.20337 28.9163 1.20337 28.1504C1.20337 25.9732 1.20151 23.7979 1.20705 21.6208C1.20705 21.4283 1.15904 21.3076 0.996496 21.1906C0.34448 20.7189 0.00461768 20.0662 0.00277061 19.2455C-0.000923536 17.6362 -0.000923536 16.0269 0.00277061 14.4176C0.00646475 13.1064 0.959555 12.0461 2.24327 12.0197C4.02939 11.9839 5.81735 12.0084 7.60531 12.0159C7.80849 12.0103 8.00797 12.0612 8.24071 12.0952ZM16.523 29.8257C16.5285 29.7125 16.5359 29.6125 16.5377 29.5125C16.5396 28.9352 16.5377 28.3579 16.5377 27.7787C16.5377 25.6223 16.5359 23.4659 16.5377 21.3095C16.5377 20.7189 16.7557 20.3926 17.2304 20.2511C17.8307 20.0718 18.0376 19.7983 18.0431 19.1606C18.045 18.9229 18.0431 18.6852 18.0431 18.4493C18.0431 16.7684 18.045 15.0855 18.0413 13.4045C18.0394 12.7442 17.7069 12.3537 17.1085 12.3518C14.9881 12.3423 12.8658 12.3423 10.7453 12.3518C10.1838 12.3537 9.81995 12.7461 9.81995 13.3158C9.81626 15.2968 9.8181 17.2777 9.81995 19.2587C9.81995 19.753 10.0619 20.0813 10.5145 20.2247C11.1498 20.4265 11.3327 20.6793 11.3327 21.3717C11.3327 24.0639 11.3327 26.758 11.3327 29.4502C11.3327 29.571 11.3327 29.6917 11.3327 29.8276C13.0763 29.8257 14.7886 29.8257 16.523 29.8257ZM6.79629 27.3693C6.79629 27.2316 6.79629 27.1203 6.79629 27.0089C6.79629 24.9469 6.79629 22.8829 6.79629 20.8208C6.79629 20.2133 6.99393 19.9341 7.56098 19.7587C7.83989 19.6719 7.99689 19.4851 7.99689 19.2002C8.00428 17.6117 8.00613 16.0231 7.99689 14.4346C7.99504 14.0705 7.77156 13.8667 7.41692 13.8648C5.75086 13.8611 4.0848 13.8611 2.41874 13.8648C2.04379 13.8648 1.82583 14.0724 1.82583 14.4497C1.82029 16.0269 1.82214 17.606 1.82583 19.1832C1.82583 19.4738 1.97359 19.6624 2.2488 19.753C2.84541 19.9473 3.03196 20.2152 3.03196 20.8661C3.03196 22.9074 3.03196 24.9506 3.03196 26.992C3.03196 27.1127 3.03196 27.2335 3.03196 27.3693C4.29351 27.3693 5.52366 27.3693 6.79629 27.3693ZM24.9622 27.3674C24.9622 27.2089 24.9622 27.0863 24.9622 26.9637C24.9622 24.911 24.9604 22.8584 24.9641 20.8038C24.9641 20.2341 25.1765 19.9266 25.6512 19.7719C26.0631 19.6379 26.1536 19.5228 26.1555 19.087C26.1591 18.3852 26.1573 17.6834 26.1573 16.9815C26.1573 16.1458 26.161 15.31 26.1536 14.4742C26.1499 14.078 25.9671 13.8648 25.6217 13.8648C23.9242 13.8592 22.2286 13.8592 20.5311 13.8648C20.206 13.8667 20.001 14.0761 20.001 14.4101C19.9955 16.0099 19.9992 17.6079 19.9992 19.2078C19.9992 19.4813 20.1322 19.6851 20.3797 19.736C20.9929 19.8624 21.2108 20.3548 21.2072 20.9208C21.1942 22.9433 21.2016 24.9657 21.2016 26.9863C21.2016 27.1071 21.2016 27.2278 21.2016 27.3636C22.465 27.3674 23.6933 27.3674 24.9622 27.3674Z" fill="currentColor"/>
<path d="M4.90448 10.8971C2.93735 10.8971 1.33594 9.27083 1.33594 7.26912C1.33409 5.27118 2.9392 3.63171 4.89895 3.62794C6.85315 3.62416 8.46933 5.26741 8.47118 7.26157C8.47302 9.2595 6.86792 10.8971 4.90448 10.8971ZM4.8971 5.50135C3.94032 5.50324 3.16454 6.28808 3.16085 7.25969C3.15715 8.23319 3.96063 9.05009 4.91741 9.04066C5.86496 9.03122 6.63704 8.22753 6.6315 7.25403C6.62411 6.27298 5.86127 5.49947 4.8971 5.50135Z" fill="currentColor"/>
<path d="M26.6306 7.27477C26.6232 9.30855 25.0218 10.9065 23.0011 10.8971C21.0746 10.8895 19.5046 9.23497 19.5157 7.22571C19.5268 5.24098 21.1374 3.61472 23.0787 3.62604C25.0458 3.63736 26.638 5.27306 26.6306 7.27477ZM23.0787 5.50134C22.1164 5.49757 21.3387 6.27486 21.3314 7.24647C21.324 8.22751 22.1145 9.04253 23.0713 9.04064C24.0244 9.03876 24.7946 8.24826 24.7965 7.26911C24.7983 6.2824 24.0429 5.50511 23.0787 5.50134Z" fill="currentColor"/>
</svg>
