<svg width="31" height="31" viewBox="0 0 31 31" fill="none" xmlns="http://www.w3.org/2000/svg">
<g clip-path="url(#clip0_22294_452)">
<path d="M15.5 1.29175V29.7084M21.9583 6.45841H12.2708C11.0718 6.45841 9.92194 6.93472 9.07412 7.78254C8.2263 8.63036 7.75 9.78025 7.75 10.9792C7.75 12.1782 8.2263 13.3281 9.07412 14.176C9.92194 15.0238 11.0718 15.5001 12.2708 15.5001H18.7292C19.9282 15.5001 21.0781 15.9764 21.9259 16.8242C22.7737 17.672 23.25 18.8219 23.25 20.0209C23.25 21.2199 22.7737 22.3698 21.9259 23.2176C21.0781 24.0654 19.9282 24.5417 18.7292 24.5417H7.75" stroke="currentColor" stroke-width="2" stroke-linecap="round" stroke-linejoin="round"/>
</g>
<defs>
<clipPath id="clip0_22294_452">
<rect width="31" height="31" fill="currentColor"/>
</clipPath>
</defs>
</svg>
