<svg width="28" height="28" viewBox="0 0 28 28" fill="none" xmlns="http://www.w3.org/2000/svg">
<path d="M5.18753 3.14411C5.16635 2.15565 5.52063 1.34088 6.2908 0.707158C6.8511 0.247113 7.50575 0.00138568 8.24704 0.00138568C12.3078 -0.000461893 16.3685 -0.000461893 20.4292 0.00138568C21.2552 0.00138568 21.9946 0.267436 22.553 0.845726C24.1549 2.50115 25.7377 4.1732 27.3069 5.85819C27.7902 6.37551 28.002 7.01662 28.002 7.71869C28.002 13.4388 28.0039 19.1607 28 24.8808C27.9981 26.5436 26.6253 27.8554 24.8905 27.8572C19.3606 27.8609 13.8308 27.8609 8.30095 27.8572C6.56807 27.8554 5.19716 26.5399 5.19331 24.8789C5.18753 21.9672 5.19138 19.0554 5.19138 16.1418C5.19138 16.018 5.19138 15.8942 5.19138 15.7593C3.4816 15.3325 2.12032 14.4439 1.13835 13.0452C0.293088 11.8351 -0.0746691 10.4937 0.0158261 9.04156C0.179488 6.44017 2.0356 3.92563 5.18753 3.14411ZM7.26507 15.9293C7.26507 16.0549 7.26507 16.1584 7.26507 16.2619C7.26507 19.0591 7.26507 21.8582 7.26507 24.6554C7.26507 25.496 7.65401 25.8692 8.52815 25.8692C13.9059 25.8692 19.2855 25.8692 24.6633 25.8692C25.5393 25.8692 25.9302 25.496 25.9302 24.6591C25.9302 19.5395 25.9302 14.4198 25.9302 9.30022C25.9302 9.19121 25.9302 9.08035 25.9302 8.95287C24.5169 8.95287 23.146 8.95657 21.7751 8.95103C20.0422 8.94548 18.679 7.63371 18.6713 5.96904C18.6675 4.75704 18.6694 3.54318 18.6694 2.33117C18.6694 2.22217 18.6694 2.11316 18.6694 1.98753C18.5057 1.98753 18.3883 1.98753 18.2708 1.98753C16.045 1.98753 13.8212 1.98753 11.5954 1.98753C10.5268 1.98753 9.45621 1.98383 8.3876 1.98937C7.73295 1.99307 7.33439 2.34595 7.27662 2.99076C9.08653 3.16443 10.6249 3.87944 11.8245 5.206C13.0356 6.54364 13.5824 8.11223 13.4727 9.87481C13.2743 13.1062 10.5537 15.7039 7.26507 15.9293ZM5.71125 5.10992C3.65682 5.51639 1.8989 7.41569 2.10492 9.76765C2.31672 12.1954 4.34227 13.9524 6.80489 13.9302C8.9325 13.9099 11.1025 12.2175 11.2469 10.4623C11.2257 10.4586 11.2045 10.4494 11.1833 10.4494C10.0724 10.4476 8.95945 10.4476 7.84848 10.4457C6.59695 10.4439 5.71318 9.59398 5.71125 8.39306C5.71125 7.30669 5.71125 6.22031 5.71125 5.10992ZM25.5624 6.96489C24.0471 5.36674 22.5973 3.8351 21.1397 2.30716C21.0454 2.20923 20.9087 2.14642 20.7489 2.03741C20.7489 3.412 20.7335 4.71454 20.7566 6.01893C20.7662 6.5732 21.2341 6.95565 21.8348 6.96304C22.4606 6.97227 23.0863 6.96489 23.7121 6.96489C24.3013 6.96489 24.8905 6.96489 25.5624 6.96489ZM7.80612 5.0896C7.80612 6.23694 7.80612 7.33994 7.80612 8.43555C8.97485 8.43555 10.1205 8.43555 11.2988 8.43555C10.7732 6.68405 9.63143 5.58105 7.80612 5.0896Z" fill="currentColor"/>
<path d="M23.855 19.4009C23.855 20.5408 23.8569 21.6808 23.855 22.8208C23.853 23.4471 23.416 23.8831 22.8037 23.8776C22.2145 23.872 21.7851 23.4305 21.7851 22.8208C21.7832 20.5408 21.7832 18.2609 21.7851 15.981C21.7851 15.351 22.2184 14.9205 22.8345 14.9261C23.4275 14.9316 23.853 15.3695 23.855 15.981C23.8569 17.121 23.855 18.2609 23.855 19.4009Z" fill="currentColor"/>
<path d="M15.5576 20.8938C15.5576 21.546 15.5615 22.2 15.5576 22.8522C15.5538 23.4508 15.1071 23.8832 14.5063 23.8758C13.9268 23.8702 13.4897 23.4342 13.4897 22.8504C13.4859 21.5441 13.4859 20.2379 13.4897 18.9335C13.4916 18.3312 13.9364 17.9044 14.541 17.91C15.1225 17.9155 15.5557 18.3478 15.5595 18.9354C15.5615 19.5894 15.5576 20.2416 15.5576 20.8938Z" fill="currentColor"/>
<path d="M19.7094 21.4185C19.7094 21.9062 19.7133 22.3922 19.7075 22.8799C19.7017 23.4564 19.2512 23.8813 18.6601 23.8776C18.0901 23.8739 17.6415 23.4453 17.6396 22.8873C17.6338 21.8933 17.6338 20.8975 17.6396 19.9035C17.6434 19.3252 18.0921 18.9021 18.6851 18.9058C19.255 18.9095 19.6998 19.3363 19.7075 19.8961C19.7152 20.4023 19.7094 20.9104 19.7094 21.4185Z" fill="currentColor"/>
<path d="M11.4133 22.4161C11.4133 22.5713 11.4152 22.7265 11.4133 22.8817C11.4017 23.4581 10.955 23.8831 10.3639 23.8775C9.79594 23.872 9.35309 23.4433 9.34346 22.8854C9.33768 22.5436 9.33576 22.2018 9.34346 21.86C9.35501 21.3075 9.81134 20.8918 10.3909 20.8955C10.9493 20.8992 11.396 21.3186 11.4114 21.8563C11.4171 22.0429 11.4133 22.2295 11.4133 22.4161Z" fill="currentColor"/>
</svg>
