<svg width="36" height="36" viewBox="0 0 36 36" fill="none" xmlns="http://www.w3.org/2000/svg">
<path d="M0 8C0 3.58172 3.58172 0 8 0H28C32.4183 0 36 3.58172 36 8V28C36 32.4183 32.4183 36 28 36H8C3.58172 36 0 32.4183 0 28V8Z" fill="#DBEAFE"/>
<path d="M19.25 11.75H14.25C13.9185 11.75 13.6005 11.8817 13.3661 12.1161C13.1317 12.3505 13 12.6685 13 13V23C13 23.3315 13.1317 23.6495 13.3661 23.8839C13.6005 24.1183 13.9185 24.25 14.25 24.25H21.75C22.0815 24.25 22.3995 24.1183 22.6339 23.8839C22.8683 23.6495 23 23.3315 23 23V15.5M19.25 11.75L23 15.5M19.25 11.75V15.5H23M20.5 18.625H15.5M20.5 21.125H15.5M16.75 16.125H15.5" stroke="#17B26A" stroke-width="1.5" stroke-linecap="round" stroke-linejoin="round"/>
</svg>
