<svg width="36" height="36" viewBox="0 0 36 36" fill="none" xmlns="http://www.w3.org/2000/svg">
<path d="M0 8C0 3.58172 3.58172 0 8 0H28C32.4183 0 36 3.58172 36 8V28C36 32.4183 32.4183 36 28 36H8C3.58172 36 0 32.4183 0 28V8Z" fill="#DBEAFE"/>
<g clip-path="url(#clip0_22068_5855)">
<path d="M18 11.125V24.875M21.125 13.625H16.4375C15.8573 13.625 15.3009 13.8555 14.8907 14.2657C14.4805 14.6759 14.25 15.2323 14.25 15.8125C14.25 16.3927 14.4805 16.9491 14.8907 17.3593C15.3009 17.7695 15.8573 18 16.4375 18H19.5625C20.1427 18 20.6991 18.2305 21.1093 18.6407C21.5195 19.0509 21.75 19.6073 21.75 20.1875C21.75 20.7677 21.5195 21.3241 21.1093 21.7343C20.6991 22.1445 20.1427 22.375 19.5625 22.375H14.25" stroke="#E04F16" stroke-width="2" stroke-linecap="round" stroke-linejoin="round"/>
</g>
<defs>
<clipPath id="clip0_22068_5855">
<rect width="15" height="15" fill="white" transform="translate(10.5 10.5)"/>
</clipPath>
</defs>
</svg>
