<svg width="36" height="36" viewBox="0 0 36 36" fill="none" xmlns="http://www.w3.org/2000/svg">
<path d="M0 8C0 3.58172 3.58172 0 8 0H28C32.4183 0 36 3.58172 36 8V28C36 32.4183 32.4183 36 28 36H8C3.58172 36 0 32.4183 0 28V8Z" fill="#DBEAFE"/>
<g clip-path="url(#clip0_22068_5891)">
<path d="M21.125 23.625V22.375C21.125 21.712 20.8616 21.0761 20.3928 20.6072C19.9239 20.1384 19.288 19.875 18.625 19.875H13.625C12.962 19.875 12.3261 20.1384 11.8572 20.6072C11.3884 21.0761 11.125 21.712 11.125 22.375V23.625M24.875 23.625V22.375C24.8746 21.8211 24.6902 21.283 24.3509 20.8452C24.0115 20.4074 23.5363 20.0947 23 19.9563M20.5 12.4563C21.0378 12.5939 21.5144 12.9067 21.8548 13.3452C22.1952 13.7837 22.3799 14.323 22.3799 14.8781C22.3799 15.4332 22.1952 15.9725 21.8548 16.4111C21.5144 16.8496 21.0378 17.1623 20.5 17.3M18.625 14.875C18.625 16.2557 17.5057 17.375 16.125 17.375C14.7443 17.375 13.625 16.2557 13.625 14.875C13.625 13.4943 14.7443 12.375 16.125 12.375C17.5057 12.375 18.625 13.4943 18.625 14.875Z" stroke="#363F72" stroke-width="1.5" stroke-linecap="round" stroke-linejoin="round"/>
</g>
<defs>
<clipPath id="clip0_22068_5891">
<rect width="15" height="15" fill="white" transform="translate(10.5 10.5)"/>
</clipPath>
</defs>
</svg>
