<svg width="54" height="54" viewBox="0 0 54 54" fill="#F7F7F7" xmlns="http://www.w3.org/2000/svg">
<rect width="54" height="54" rx="27" fill="#F7F7F7"/>
<path d="M26.1521 40.9637C25.9695 40.9187 25.7841 40.8816 25.6044 40.8277C24.0262 40.3506 23.0356 39.3171 22.6552 37.7068C22.6384 37.6363 22.6203 37.5665 22.5963 37.4726C22.4981 37.4726 22.3999 37.4726 22.3024 37.4726C20.4478 37.4726 18.5931 37.4806 16.7385 37.4676C16.033 37.4625 15.4984 37.1228 15.1893 36.4879C14.8853 35.8646 14.9522 35.2514 15.3559 34.6863C15.4548 34.5474 15.5857 34.4288 15.7137 34.3139C17.5669 32.6549 18.4811 30.5748 18.5 28.0961C18.5095 26.8692 18.4877 25.6414 18.5109 24.4145C18.5742 21.0907 20.8143 18.0418 23.9701 16.9864C24.2502 16.8926 24.328 16.7704 24.3178 16.4919C24.3011 16.0206 24.2953 15.5442 24.3454 15.0758C24.472 13.9019 25.4779 13.0306 26.6568 13.0357C27.8235 13.0408 28.8184 13.9121 28.9391 15.0758C28.9922 15.5893 28.9726 16.1107 28.9712 16.6279C28.9704 16.7981 29.0177 16.8773 29.1872 16.9392C32.2593 18.0549 34.0994 20.2244 34.6886 23.4384C34.7729 23.8995 34.7729 24.3788 34.7809 24.8509C34.8027 26.1869 34.7511 27.5266 34.834 28.8584C34.9642 30.953 35.8661 32.7102 37.3891 34.1496C37.488 34.2434 37.5934 34.3299 37.6924 34.4237C38.2509 34.9532 38.4233 35.6813 38.1549 36.3664C37.8887 37.045 37.2574 37.4705 36.4923 37.4719C34.6558 37.4756 32.8194 37.4734 30.9829 37.4734C30.8927 37.4734 30.8018 37.4734 30.6898 37.4734C30.6578 37.6087 30.6316 37.7396 30.5952 37.8668C30.1094 39.5542 29.0068 40.5717 27.2823 40.9128C27.2314 40.923 27.1834 40.947 27.134 40.9645C26.8067 40.9637 26.4794 40.9637 26.1521 40.9637ZM26.6518 36.3133C26.6518 36.3082 26.6518 36.3039 26.6518 36.2988C27.8147 36.2988 28.9777 36.2973 30.1414 36.2988C32.2222 36.3024 34.3031 36.3068 36.3846 36.3133C36.6872 36.314 36.9454 36.2457 37.072 35.9344C37.1781 35.6718 37.1032 35.4522 36.8174 35.1962C34.6762 33.2804 33.6223 30.8817 33.626 28.0125C33.6274 26.931 33.6318 25.8495 33.623 24.7679C33.6201 24.405 33.607 24.0392 33.5539 23.6813C32.9365 19.5226 28.9261 16.8766 24.8458 17.9283C21.8784 18.6934 19.7052 21.4478 19.6666 24.5134C19.6499 25.8313 19.6863 27.1499 19.6521 28.4663C19.5997 30.4992 18.9422 32.3313 17.6731 33.9234C17.2905 34.4034 16.8279 34.8209 16.3966 35.2623C16.2104 35.4529 16.113 35.6602 16.2126 35.9249C16.3115 36.1882 16.5181 36.2951 16.7843 36.3097C16.8752 36.3148 16.9661 36.3119 17.057 36.3119C20.2543 36.3133 23.453 36.3133 26.6518 36.3133ZM23.8218 37.4821C23.9512 38.7214 25.2968 39.8175 26.6583 39.8022C28.0315 39.787 29.3632 38.6873 29.4584 37.4821C27.5798 37.4821 25.7019 37.4821 23.8218 37.4821ZM27.7827 16.5573C27.7864 16.5377 27.7994 16.5035 27.7994 16.47C27.8002 16.0802 27.8104 15.6896 27.7958 15.2998C27.7733 14.7063 27.3202 14.2539 26.7187 14.2001C26.187 14.1528 25.6059 14.5296 25.531 15.07C25.4619 15.5638 25.5164 16.0751 25.5164 16.5573C26.2728 16.5573 27.0212 16.5573 27.7827 16.5573Z" fill="#2E2E2E"/>
</svg>
