<svg width="7" height="11" viewBox="0 0 7 11" fill="none" xmlns="http://www.w3.org/2000/svg">
<path d="M6.67568 1.96179V0.935527C6.67568 0.846576 6.57346 0.797453 6.50442 0.851886L0.519458 5.52647C0.468607 5.56602 0.427461 5.61666 0.399157 5.67452C0.370853 5.73239 0.35614 5.79596 0.35614 5.86037C0.35614 5.92479 0.370853 5.98836 0.399157 6.04622C0.427461 6.10409 0.468607 6.15473 0.519458 6.19427L6.50442 10.8689C6.57478 10.9233 6.67568 10.8742 6.67568 10.7852V9.75896C6.67568 9.69391 6.64515 9.63151 6.5947 9.59168L1.81523 5.86104L6.5947 2.12907C6.64515 2.08924 6.67568 2.02684 6.67568 1.96179V1.96179Z" fill="#252525"/>
</svg>
