<svg width="36" height="36" viewBox="0 0 36 36" fill="none" xmlns="http://www.w3.org/2000/svg">
<rect x="1.5" y="1.5" width="33" height="33" rx="16.5" fill="#252525" stroke="white" stroke-width="3"/>
<g clip-path="url(#clip0_4729_456266)">
<path d="M23.4583 14.2502H22.3349L21.6266 13.5418C21.2164 13.1317 20.4968 12.8335 19.9167 12.8335H17.0833C16.5032 12.8335 15.7835 13.1317 15.3734 13.5418L14.6651 14.2502H13.5417C12.3701 14.2502 11.4167 15.2036 11.4167 16.3752V22.0418C11.4167 23.2134 12.3701 24.1668 13.5417 24.1668H23.4583C24.6299 24.1668 25.5833 23.2134 25.5833 22.0418V16.3752C25.5833 15.2036 24.6299 14.2502 23.4583 14.2502ZM18.5 21.3335C17.8424 21.3334 17.2117 21.0721 16.7468 20.607C16.2819 20.1419 16.0207 19.5112 16.0208 18.8536C16.0209 18.196 16.2822 17.5654 16.7473 17.1004C17.2124 16.6355 17.8431 16.3744 18.5007 16.3745C19.1583 16.3745 19.7889 16.6359 20.2539 17.1009C20.7188 17.566 20.98 18.1967 20.9799 18.8543C20.9798 19.5119 20.7184 20.1426 20.2534 20.6075C19.7883 21.0724 19.1576 21.3336 18.5 21.3335ZM22.75 18.0036C22.6291 18.0036 22.5093 17.9798 22.3976 17.9335C22.2859 17.8873 22.1844 17.8194 22.0989 17.7339C22.0134 17.6484 21.9455 17.5469 21.8993 17.4352C21.853 17.3235 21.8292 17.2037 21.8292 17.0828C21.8292 16.9619 21.853 16.8421 21.8993 16.7304C21.9455 16.6187 22.0134 16.5172 22.0989 16.4317C22.1844 16.3462 22.2859 16.2783 22.3976 16.232C22.5093 16.1858 22.6291 16.162 22.75 16.162C22.9942 16.162 23.2284 16.259 23.4011 16.4317C23.5738 16.6044 23.6708 16.8386 23.6708 17.0828C23.6708 17.327 23.5738 17.5612 23.4011 17.7339C23.2284 17.9066 22.9942 18.0036 22.75 18.0036Z" fill="white"/>
</g>
<defs>
<clipPath id="clip0_4729_456266">
<rect width="15" height="13" fill="white" transform="translate(11 12)"/>
</clipPath>
</defs>
</svg>
