<svg width="123" height="123" viewBox="0 0 123 123" fill="none" xmlns="http://www.w3.org/2000/svg">
<rect width="123" height="123" rx="61.5" fill="#F0EFEF"/>
<g clip-path="url(#clip0_4729_456262)">
<path d="M80.8325 78.8125C80.8325 79.2601 80.6547 79.6893 80.3382 80.0057C80.0218 80.3222 79.5926 80.5 79.145 80.5H44.855C44.4075 80.5 43.9782 80.3222 43.6618 80.0057C43.3453 79.6893 43.1675 79.2601 43.1675 78.8125C43.1675 69.5875 53.2925 62.4325 62 62.4325C70.7075 62.4325 80.8325 69.5875 80.8325 78.8125ZM73.475 46.9975C73.4706 49.2661 72.7938 51.4824 71.5302 53.3665C70.2666 55.2506 68.4729 56.7179 66.3757 57.583C64.2786 58.448 61.972 58.6721 59.7476 58.2268C57.5231 57.7815 55.4806 56.6868 53.878 55.0811C52.2755 53.4754 51.1848 51.4307 50.7439 49.2054C50.3029 46.9801 50.5315 44.674 51.4007 42.5785C52.2698 40.4831 53.7406 38.6922 55.6272 37.4323C57.5138 36.1724 59.7314 35.5 62 35.5C65.0454 35.506 67.9641 36.7199 70.1154 38.8755C72.2668 41.031 73.475 43.9521 73.475 46.9975Z" fill="white"/>
</g>
<defs>
<clipPath id="clip0_4729_456262">
<rect width="38" height="46" fill="white" transform="translate(43 35)"/>
</clipPath>
</defs>
</svg>
