<svg width="13" height="13" viewBox="0 0 13 13" fill="none" xmlns="http://www.w3.org/2000/svg">
<path d="M10.1405 6.52685L4.15552 1.85226C4.13988 1.83995 4.12108 1.8323 4.10129 1.83019C4.0815 1.82808 4.06152 1.83159 4.04363 1.84032C4.02575 1.84906 4.01069 1.86266 4.00018 1.87957C3.98968 1.89647 3.98416 1.916 3.98425 1.9359V2.96216C3.98425 3.02722 4.01479 3.08962 4.06524 3.12944L8.84471 6.86141L4.06524 10.5934C4.01346 10.6332 3.98425 10.6956 3.98425 10.7607V11.7869C3.98425 11.8759 4.08648 11.925 4.15552 11.8706L10.1405 7.19598C10.1913 7.1563 10.2325 7.10554 10.2608 7.04757C10.2891 6.98959 10.3038 6.92593 10.3038 6.86141C10.3038 6.7969 10.2891 6.73324 10.2608 6.67526C10.2325 6.61729 10.1913 6.56653 10.1405 6.52685Z" fill="#252525"/>
</svg>
