<svg width="219" height="38" viewBox="0 0 219 38" fill="none" xmlns="http://www.w3.org/2000/svg">
<path fill-rule="evenodd" clip-rule="evenodd" d="M50.478 6.18203V5.53037V4.81778C50.478 2.16763 48.3468 0 45.7412 0H45.2545H24.1454C20.7658 0 18 2.81306 18 6.25043V16.6322V18.3968V31.3678C18 33.1922 18.7336 34.8512 19.9148 36.0525C21.0959 37.2538 22.7258 38 24.5208 38H50.4792C52.2729 38 53.9041 37.2538 55.0852 36.0525C56.2664 34.8512 57 33.1934 57 31.3678V16.6309C57 14.8065 56.2664 13.1475 55.0852 11.9462C53.9041 10.7449 52.2742 9.99869 50.4792 9.99869V6.18203H50.478ZM54.5399 28.4229H48.7148C47.3478 28.4229 46.1055 27.8546 45.2056 26.9393C44.3057 26.024 43.7469 24.7604 43.7469 23.3701C43.7469 21.9797 44.3057 20.7162 45.2056 19.8009C46.1055 18.8856 47.3478 18.3173 48.7148 18.3173H54.5399V16.6309C54.5399 15.4967 54.0826 14.4633 53.3453 13.7146C52.608 12.9647 51.5931 12.4996 50.478 12.4996H24.5196H24.1454C22.765 12.4996 21.4872 12.0308 20.4577 11.2411V16.6309V31.3678C20.4577 32.5032 20.915 33.5354 21.6523 34.2841C22.3896 35.0327 23.4044 35.4991 24.5196 35.4991H50.478C51.5943 35.4991 52.6092 35.034 53.3453 34.2841C54.0814 33.5342 54.5399 32.502 54.5399 31.3678V28.4229ZM54.5399 20.8182H48.7148C48.0264 20.8182 47.3992 21.1054 46.9431 21.5693C46.4882 22.0319 46.2046 22.6699 46.2046 23.3713C46.2046 24.0715 46.487 24.7095 46.9431 25.1733C47.398 25.6359 48.0252 25.9245 48.7148 25.9245H54.5399V20.8182ZM24.1454 5.00059H44.3326C45.0087 5.00059 45.5614 5.5627 45.5614 6.25043C45.5614 6.93815 45.0087 7.50026 44.3326 7.50026H24.1454C23.4692 7.50026 22.9166 6.93815 22.9166 6.25043C22.9166 5.5627 23.4692 5.00059 24.1454 5.00059ZM48.0203 10.0012H24.5196H24.1454C22.1169 10.0012 20.4577 8.31359 20.4577 6.25043C20.4577 4.18726 22.1169 2.49967 24.1454 2.49967H45.2545H45.7412C46.9945 2.49967 48.0203 3.54307 48.0203 4.81778V5.53037V6.18203V10.0012Z" fill="#2A58E6"/>
<path d="M81.4232 9.49985C83.2632 9.49985 84.8832 9.78985 86.2832 10.3699C87.7032 10.9299 88.9332 11.7599 89.9732 12.8599L87.4832 16.1899C86.6232 15.2899 85.6932 14.6199 84.6932 14.1799C83.7132 13.7199 82.5932 13.4899 81.3332 13.4899C80.5932 13.4899 79.9932 13.5699 79.5332 13.7299C79.0732 13.8899 78.7432 14.1099 78.5432 14.3899C78.3432 14.6699 78.2432 14.9899 78.2432 15.3499C78.2432 15.7699 78.4332 16.1299 78.8132 16.4299C79.2132 16.7099 79.8532 16.9499 80.7332 17.1499L84.0632 17.8999C86.0432 18.3599 87.4932 19.0299 88.4132 19.9099C89.3332 20.7899 89.7932 21.9599 89.7932 23.4199C89.7932 24.8199 89.4332 26.0099 88.7132 26.9899C87.9932 27.9499 87.0032 28.6799 85.7432 29.1799C84.4832 29.6599 83.0432 29.8999 81.4232 29.8999C80.1032 29.8999 78.8432 29.7599 77.6432 29.4799C76.4432 29.1799 75.3632 28.7599 74.4032 28.2199C73.4432 27.6799 72.6332 27.0599 71.9732 26.3599L74.4632 22.9099C74.9632 23.4899 75.5732 24.0099 76.2932 24.4699C77.0332 24.9099 77.8332 25.2599 78.6932 25.5199C79.5732 25.7799 80.4632 25.9099 81.3632 25.9099C82.0632 25.9099 82.6432 25.8399 83.1032 25.6999C83.5832 25.5599 83.9332 25.3499 84.1532 25.0699C84.3732 24.7899 84.4832 24.4599 84.4832 24.0799C84.4832 23.6599 84.3332 23.3099 84.0332 23.0299C83.7332 22.7299 83.1632 22.4799 82.3232 22.2799L78.6632 21.4699C77.5432 21.2099 76.5432 20.8699 75.6632 20.4499C74.8032 20.0099 74.1232 19.4299 73.6232 18.7099C73.1232 17.9699 72.8732 17.0499 72.8732 15.9499C72.8732 14.7099 73.2132 13.6099 73.8932 12.6499C74.5732 11.6699 75.5532 10.8999 76.8332 10.3399C78.1132 9.77985 79.6432 9.49985 81.4232 9.49985ZM100.912 20.0899C100.912 19.3899 100.712 18.8399 100.312 18.4399C99.9319 18.0199 99.4119 17.8099 98.7519 17.8099C98.0919 17.8099 97.5219 17.9799 97.0419 18.3199C96.5819 18.6399 96.2619 19.2199 96.0819 20.0599L91.7619 19.0399C92.0419 17.5999 92.7819 16.4499 93.9819 15.5899C95.1819 14.7299 96.8719 14.2999 99.0519 14.2999C100.512 14.2999 101.752 14.5199 102.772 14.9599C103.812 15.3799 104.602 16.0199 105.142 16.8799C105.702 17.7199 105.982 18.7599 105.982 19.9999V25.4899C105.982 26.2699 106.332 26.6599 107.032 26.6599C107.392 26.6599 107.682 26.6199 107.902 26.5399L107.602 29.4499C107.002 29.7299 106.272 29.8699 105.412 29.8699C104.632 29.8699 103.942 29.7499 103.342 29.5099C102.742 29.2499 102.272 28.8699 101.932 28.3699C101.592 27.8499 101.422 27.1999 101.422 26.4199V26.2399L101.992 26.0299C101.992 26.8899 101.732 27.6099 101.212 28.1899C100.712 28.7699 100.052 29.1999 99.2319 29.4799C98.4319 29.7599 97.5919 29.8999 96.7119 29.8999C95.6919 29.8999 94.8019 29.7399 94.0419 29.4199C93.2819 29.0999 92.6919 28.6399 92.2719 28.0399C91.8719 27.4199 91.6719 26.6599 91.6719 25.7599C91.6719 24.6799 91.9919 23.7899 92.6319 23.0899C93.2919 22.3699 94.3219 21.8699 95.7219 21.5899L101.392 20.4199L101.362 23.1199L98.4819 23.7199C97.8819 23.8399 97.4319 24.0199 97.1319 24.2599C96.8519 24.4799 96.7119 24.8199 96.7119 25.2799C96.7119 25.7199 96.8719 26.0499 97.1919 26.2699C97.5119 26.4899 97.8919 26.5999 98.3319 26.5999C98.6719 26.5999 98.9919 26.5499 99.2919 26.4499C99.6119 26.3499 99.8919 26.1999 100.132 25.9999C100.372 25.7799 100.562 25.5099 100.702 25.1899C100.842 24.8699 100.912 24.4899 100.912 24.0499V20.0899ZM114.955 8.23985V24.4999C114.955 25.1599 115.065 25.6299 115.285 25.9099C115.505 26.1899 115.875 26.3299 116.395 26.3299C116.695 26.3299 116.945 26.3099 117.145 26.2699C117.345 26.2299 117.585 26.1699 117.865 26.0899L117.535 29.1499C117.175 29.3699 116.705 29.5499 116.125 29.6899C115.545 29.8299 114.975 29.8999 114.415 29.8999C112.815 29.8999 111.655 29.5299 110.935 28.7899C110.215 28.0499 109.855 26.8399 109.855 25.1599V8.23985H114.955ZM128.334 20.0899C128.334 19.3899 128.134 18.8399 127.734 18.4399C127.354 18.0199 126.834 17.8099 126.174 17.8099C125.514 17.8099 124.944 17.9799 124.464 18.3199C124.004 18.6399 123.684 19.2199 123.504 20.0599L119.184 19.0399C119.464 17.5999 120.204 16.4499 121.404 15.5899C122.604 14.7299 124.294 14.2999 126.474 14.2999C127.934 14.2999 129.174 14.5199 130.194 14.9599C131.234 15.3799 132.024 16.0199 132.564 16.8799C133.124 17.7199 133.404 18.7599 133.404 19.9999V25.4899C133.404 26.2699 133.754 26.6599 134.454 26.6599C134.814 26.6599 135.104 26.6199 135.324 26.5399L135.024 29.4499C134.424 29.7299 133.694 29.8699 132.834 29.8699C132.054 29.8699 131.364 29.7499 130.764 29.5099C130.164 29.2499 129.694 28.8699 129.354 28.3699C129.014 27.8499 128.844 27.1999 128.844 26.4199V26.2399L129.414 26.0299C129.414 26.8899 129.154 27.6099 128.634 28.1899C128.134 28.7699 127.474 29.1999 126.654 29.4799C125.854 29.7599 125.014 29.8999 124.134 29.8999C123.114 29.8999 122.224 29.7399 121.464 29.4199C120.704 29.0999 120.114 28.6399 119.694 28.0399C119.294 27.4199 119.094 26.6599 119.094 25.7599C119.094 24.6799 119.414 23.7899 120.054 23.0899C120.714 22.3699 121.744 21.8699 123.144 21.5899L128.814 20.4199L128.784 23.1199L125.904 23.7199C125.304 23.8399 124.854 24.0199 124.554 24.2599C124.274 24.4799 124.134 24.8199 124.134 25.2799C124.134 25.7199 124.294 26.0499 124.614 26.2699C124.934 26.4899 125.314 26.5999 125.754 26.5999C126.094 26.5999 126.414 26.5499 126.714 26.4499C127.034 26.3499 127.314 26.1999 127.554 25.9999C127.794 25.7799 127.984 25.5099 128.124 25.1899C128.264 24.8699 128.334 24.4899 128.334 24.0499V20.0899Z" fill="#2A58E6"/>
<path d="M143.547 2.7299V18.5999H139.497V2.7299H143.547ZM149.037 8.8199V12.4799H133.977V8.8199H149.037Z" fill="#2A58E6"/>
</svg>
