<svg width="133" height="38" viewBox="0 0 133 38" fill="none" xmlns="http://www.w3.org/2000/svg">
<path d="M63.4232 9.10001C65.2632 9.10001 66.8832 9.39001 68.2832 9.97001C69.7032 10.53 70.9332 11.36 71.9732 12.46L69.4832 15.79C68.6232 14.89 67.6932 14.22 66.6932 13.78C65.7132 13.32 64.5932 13.09 63.3332 13.09C62.5932 13.09 61.9932 13.17 61.5332 13.33C61.0732 13.49 60.7432 13.71 60.5432 13.99C60.3432 14.27 60.2432 14.59 60.2432 14.95C60.2432 15.37 60.4332 15.73 60.8132 16.03C61.2132 16.31 61.8532 16.55 62.7332 16.75L66.0632 17.5C68.0432 17.96 69.4932 18.63 70.4132 19.51C71.3332 20.39 71.7932 21.56 71.7932 23.02C71.7932 24.42 71.4332 25.61 70.7132 26.59C69.9932 27.55 69.0032 28.28 67.7432 28.78C66.4832 29.26 65.0432 29.5 63.4232 29.5C62.1032 29.5 60.8432 29.36 59.6432 29.08C58.4432 28.78 57.3632 28.36 56.4032 27.82C55.4432 27.28 54.6332 26.66 53.9732 25.96L56.4632 22.51C56.9632 23.09 57.5732 23.61 58.2932 24.07C59.0332 24.51 59.8332 24.86 60.6932 25.12C61.5732 25.38 62.4632 25.51 63.3632 25.51C64.0632 25.51 64.6432 25.44 65.1032 25.3C65.5832 25.16 65.9332 24.95 66.1532 24.67C66.3732 24.39 66.4832 24.06 66.4832 23.68C66.4832 23.26 66.3332 22.91 66.0332 22.63C65.7332 22.33 65.1632 22.08 64.3232 21.88L60.6632 21.07C59.5432 20.81 58.5432 20.47 57.6632 20.05C56.8032 19.61 56.1232 19.03 55.6232 18.31C55.1232 17.57 54.8732 16.65 54.8732 15.55C54.8732 14.31 55.2132 13.21 55.8932 12.25C56.5732 11.27 57.5532 10.5 58.8332 9.94001C60.1132 9.38001 61.6432 9.10001 63.4232 9.10001ZM82.9119 19.69C82.9119 18.99 82.7119 18.44 82.3119 18.04C81.9319 17.62 81.4119 17.41 80.7519 17.41C80.0919 17.41 79.5219 17.58 79.0419 17.92C78.5819 18.24 78.2619 18.82 78.0819 19.66L73.7619 18.64C74.0419 17.2 74.7819 16.05 75.9819 15.19C77.1819 14.33 78.8719 13.9 81.0519 13.9C82.5119 13.9 83.7519 14.12 84.7719 14.56C85.8119 14.98 86.6019 15.62 87.1419 16.48C87.7019 17.32 87.9819 18.36 87.9819 19.6V25.09C87.9819 25.87 88.3319 26.26 89.0319 26.26C89.3919 26.26 89.6819 26.22 89.9019 26.14L89.6019 29.05C89.0019 29.33 88.2719 29.47 87.4119 29.47C86.6319 29.47 85.9419 29.35 85.3419 29.11C84.7419 28.85 84.2719 28.47 83.9319 27.97C83.5919 27.45 83.4219 26.8 83.4219 26.02V25.84L83.9919 25.63C83.9919 26.49 83.7319 27.21 83.2119 27.79C82.7119 28.37 82.0519 28.8 81.2319 29.08C80.4319 29.36 79.5919 29.5 78.7119 29.5C77.6919 29.5 76.8019 29.34 76.0419 29.02C75.2819 28.7 74.6919 28.24 74.2719 27.64C73.8719 27.02 73.6719 26.26 73.6719 25.36C73.6719 24.28 73.9919 23.39 74.6319 22.69C75.2919 21.97 76.3219 21.47 77.7219 21.19L83.3919 20.02L83.3619 22.72L80.4819 23.32C79.8819 23.44 79.4319 23.62 79.1319 23.86C78.8519 24.08 78.7119 24.42 78.7119 24.88C78.7119 25.32 78.8719 25.65 79.1919 25.87C79.5119 26.09 79.8919 26.2 80.3319 26.2C80.6719 26.2 80.9919 26.15 81.2919 26.05C81.6119 25.95 81.8919 25.8 82.1319 25.6C82.3719 25.38 82.5619 25.11 82.7019 24.79C82.8419 24.47 82.9119 24.09 82.9119 23.65V19.69ZM96.955 7.84001V24.1C96.955 24.76 97.065 25.23 97.285 25.51C97.505 25.79 97.875 25.93 98.395 25.93C98.695 25.93 98.945 25.91 99.145 25.87C99.345 25.83 99.585 25.77 99.865 25.69L99.535 28.75C99.175 28.97 98.705 29.15 98.125 29.29C97.545 29.43 96.975 29.5 96.415 29.5C94.815 29.5 93.655 29.13 92.935 28.39C92.215 27.65 91.855 26.44 91.855 24.76V7.84001H96.955ZM110.334 19.69C110.334 18.99 110.134 18.44 109.734 18.04C109.354 17.62 108.834 17.41 108.174 17.41C107.514 17.41 106.944 17.58 106.464 17.92C106.004 18.24 105.684 18.82 105.504 19.66L101.184 18.64C101.464 17.2 102.204 16.05 103.404 15.19C104.604 14.33 106.294 13.9 108.474 13.9C109.934 13.9 111.174 14.12 112.194 14.56C113.234 14.98 114.024 15.62 114.564 16.48C115.124 17.32 115.404 18.36 115.404 19.6V25.09C115.404 25.87 115.754 26.26 116.454 26.26C116.814 26.26 117.104 26.22 117.324 26.14L117.024 29.05C116.424 29.33 115.694 29.47 114.834 29.47C114.054 29.47 113.364 29.35 112.764 29.11C112.164 28.85 111.694 28.47 111.354 27.97C111.014 27.45 110.844 26.8 110.844 26.02V25.84L111.414 25.63C111.414 26.49 111.154 27.21 110.634 27.79C110.134 28.37 109.474 28.8 108.654 29.08C107.854 29.36 107.014 29.5 106.134 29.5C105.114 29.5 104.224 29.34 103.464 29.02C102.704 28.7 102.114 28.24 101.694 27.64C101.294 27.02 101.094 26.26 101.094 25.36C101.094 24.28 101.414 23.39 102.054 22.69C102.714 21.97 103.744 21.47 105.144 21.19L110.814 20.02L110.784 22.72L107.904 23.32C107.304 23.44 106.854 23.62 106.554 23.86C106.274 24.08 106.134 24.42 106.134 24.88C106.134 25.32 106.294 25.65 106.614 25.87C106.934 26.09 107.314 26.2 107.754 26.2C108.094 26.2 108.414 26.15 108.714 26.05C109.034 25.95 109.314 25.8 109.554 25.6C109.794 25.38 109.984 25.11 110.124 24.79C110.264 24.47 110.334 24.09 110.334 23.65V19.69Z" fill="#2A58E6"/>
<path d="M125.547 2.33V18.2H121.497V2.33H125.547ZM131.037 8.42V12.08H115.977V8.42H131.037Z" fill="#2A58E6"/>
<path fill-rule="evenodd" clip-rule="evenodd" d="M32.478 6.18203V5.53037V4.81778C32.478 2.16763 30.3468 0 27.7412 0H27.2545H6.14541C2.7658 0 0 2.81306 0 6.25043V16.6322V18.3968V31.3678C0 33.1922 0.733634 34.8512 1.91479 36.0525C3.09594 37.2538 4.72583 38 6.52079 38H32.4792C34.2729 38 35.9041 37.2538 37.0852 36.0525C38.2664 34.8512 39 33.1934 39 31.3678V16.6309C39 14.8065 38.2664 13.1475 37.0852 11.9462C35.9041 10.7449 34.2742 9.99869 32.4792 9.99869V6.18203H32.478ZM36.5399 28.4229H30.7148C29.3478 28.4229 28.1055 27.8546 27.2056 26.9393C26.3057 26.024 25.7469 24.7604 25.7469 23.3701C25.7469 21.9797 26.3057 20.7162 27.2056 19.8009C28.1055 18.8856 29.3478 18.3173 30.7148 18.3173H36.5399V16.6309C36.5399 15.4967 36.0826 14.4633 35.3453 13.7146C34.608 12.9647 33.5931 12.4996 32.478 12.4996H6.51956H6.14541C4.76495 12.4996 3.48721 12.0308 2.45767 11.2411V16.6309V31.3678C2.45767 32.5032 2.91497 33.5354 3.65228 34.2841C4.38958 35.0327 5.40444 35.4991 6.51956 35.4991H32.478C33.5943 35.4991 34.6092 35.034 35.3453 34.2841C36.0814 33.5342 36.5399 32.502 36.5399 31.3678V28.4229ZM36.5399 20.8182H30.7148C30.0264 20.8182 29.3992 21.1054 28.9431 21.5693C28.4882 22.0319 28.2046 22.6699 28.2046 23.3713C28.2046 24.0715 28.487 24.7095 28.9431 25.1733C29.398 25.6359 30.0252 25.9245 30.7148 25.9245H36.5399V20.8182ZM6.14541 5.00059H26.3326C27.0087 5.00059 27.5614 5.5627 27.5614 6.25043C27.5614 6.93815 27.0087 7.50026 26.3326 7.50026H6.14541C5.46924 7.50026 4.91657 6.93815 4.91657 6.25043C4.91657 5.5627 5.46924 5.00059 6.14541 5.00059ZM30.0203 10.0012H6.51956H6.14541C4.11691 10.0012 2.45767 8.31359 2.45767 6.25043C2.45767 4.18726 4.11691 2.49967 6.14541 2.49967H27.2545H27.7412C28.9945 2.49967 30.0203 3.54307 30.0203 4.81778V5.53037V6.18203V10.0012Z" fill="#2A58E6"/>
</svg>
